<?xml version="1.0" encoding="UTF-8" standalone="no"?><!DOCTYPE svg PUBLIC "-//W3C//DTD SVG 1.1//EN" "http://www.w3.org/Graphics/SVG/1.1/DTD/svg11.dtd"><svg width="100%" height="100%" viewBox="0 0 874 437" version="1.1" xmlns="http://www.w3.org/2000/svg" xmlns:xlink="http://www.w3.org/1999/xlink" xml:space="preserve" xmlns:serif="http://www.serif.com/" style="fill-rule:evenodd;clip-rule:evenodd;stroke-linejoin:round;stroke-miterlimit:2;"><rect id="diagonals" x="0" y="0" width="873.6" height="436.8" style="fill:none;"/><clipPath id="_clip1"><rect x="0" y="0" width="873.6" height="436.8"/></clipPath><g clip-path="url(#_clip1)"><g><g><path d="M106.2,343.167l23.855,-41.318c0.466,-0.807 1.075,-1.459 1.828,-1.957c0.752,-0.498 1.575,-0.839 2.47,-1.022c0.894,-0.183 1.821,-0.195 2.78,-0.036c0.959,0.16 1.894,0.502 2.804,1.027c0.91,0.526 1.673,1.164 2.291,1.915c0.618,0.751 1.071,1.56 1.359,2.426c0.289,0.866 0.398,1.745 0.328,2.637c-0.071,0.892 -0.339,1.741 -0.805,2.548l-23.855,41.318l13.056,7.538l23.855,-41.318c0.466,-0.807 1.068,-1.464 1.805,-1.971c0.738,-0.507 1.553,-0.852 2.448,-1.035c0.894,-0.183 1.821,-0.195 2.78,-0.035c0.959,0.159 1.894,0.501 2.804,1.026c0.909,0.526 1.673,1.164 2.291,1.915c0.617,0.751 1.071,1.56 1.359,2.426c0.289,0.866 0.398,1.745 0.328,2.637c-0.071,0.892 -0.339,1.741 -0.805,2.548l-23.855,41.318l13.056,7.538l23.855,-41.318c1.382,-2.394 2.175,-4.94 2.378,-7.639c0.203,-2.698 -0.128,-5.346 -0.993,-7.944c-0.866,-2.598 -2.229,-5.034 -4.089,-7.31c-1.861,-2.276 -4.14,-4.193 -6.839,-5.751c-2.427,-1.401 -4.983,-2.366 -7.67,-2.895c-2.687,-0.529 -5.344,-0.583 -7.972,-0.164c-0.951,-2.485 -2.319,-4.755 -4.106,-6.809c-1.786,-2.053 -3.892,-3.78 -6.318,-5.181c-2.699,-1.558 -5.499,-2.574 -8.4,-3.048c-2.901,-0.473 -5.693,-0.435 -8.376,0.114c-2.682,0.55 -5.141,1.587 -7.376,3.112c-2.236,1.525 -4.044,3.485 -5.426,5.879l-23.855,41.318l0.027,0.016l-23.855,41.318c-0.466,0.807 -1.075,1.46 -1.828,1.958c-0.752,0.498 -1.575,0.838 -2.47,1.021c-0.894,0.184 -1.821,0.195 -2.78,0.036c-0.959,-0.159 -1.894,-0.502 -2.804,-1.027c-0.91,-0.525 -1.673,-1.163 -2.291,-1.914c-0.618,-0.752 -1.071,-1.56 -1.359,-2.426c-0.289,-0.866 -0.398,-1.745 -0.328,-2.637c0.071,-0.892 0.339,-1.742 0.804,-2.549l23.856,-41.318l-13.056,-7.537l-23.855,41.318c-0.466,0.807 -1.068,1.464 -1.805,1.97c-0.738,0.507 -1.553,0.852 -2.448,1.035c-0.894,0.183 -1.821,0.195 -2.78,0.036c-0.959,-0.159 -1.894,-0.502 -2.804,-1.027c-0.909,-0.525 -1.673,-1.163 -2.291,-1.915c-0.617,-0.751 -1.071,-1.559 -1.359,-2.425c-0.289,-0.866 -0.398,-1.745 -0.328,-2.637c0.071,-0.892 0.339,-1.742 0.805,-2.549l23.855,-41.318l-13.056,-7.538l-23.855,41.319c-1.382,2.394 -2.175,4.94 -2.378,7.638c-0.203,2.698 0.128,5.346 0.993,7.944c0.866,2.598 2.229,5.035 4.089,7.31c1.861,2.276 4.14,4.193 6.839,5.751c2.427,1.401 4.983,2.366 7.67,2.895c2.687,0.529 5.344,0.584 7.972,0.164c0.951,2.486 2.319,4.755 4.106,6.809c1.786,2.054 3.892,3.781 6.318,5.182c2.699,1.558 5.499,2.574 8.4,3.047c2.901,0.473 5.693,0.435 8.376,-0.114c2.682,-0.549 5.141,-1.587 7.376,-3.112c2.235,-1.525 4.044,-3.484 5.426,-5.878l23.855,-41.319" style="fill:#b8ea86;"/><path d="M416.115,345.472l-23.855,41.318c-0.466,0.807 -1.075,1.46 -1.828,1.958c-0.753,0.498 -1.576,0.838 -2.47,1.022c-0.894,0.183 -1.821,0.195 -2.78,0.035c-0.96,-0.159 -1.894,-0.501 -2.804,-1.027c-0.91,-0.525 -1.674,-1.163 -2.291,-1.914c-0.618,-0.751 -1.071,-1.56 -1.36,-2.426c-0.288,-0.866 -0.397,-1.745 -0.327,-2.637c0.07,-0.892 0.338,-1.741 0.804,-2.548l23.855,-41.319l-13.056,-7.537l-23.855,41.318c-0.466,0.807 -1.067,1.464 -1.805,1.971c-0.737,0.506 -1.553,0.851 -2.447,1.034c-0.894,0.184 -1.821,0.195 -2.78,0.036c-0.96,-0.159 -1.894,-0.502 -2.804,-1.027c-0.91,-0.525 -1.674,-1.163 -2.291,-1.914c-0.618,-0.752 -1.071,-1.56 -1.36,-2.426c-0.288,-0.866 -0.397,-1.745 -0.327,-2.637c0.07,-0.892 0.338,-1.742 0.804,-2.549l23.855,-41.318l-13.055,-7.537l-23.856,41.318c-1.382,2.394 -2.174,4.94 -2.378,7.638c-0.203,2.698 0.128,5.346 0.994,7.944c0.865,2.598 2.228,5.035 4.089,7.311c1.86,2.275 4.14,4.192 6.839,5.751c2.426,1.4 4.983,2.365 7.669,2.894c2.687,0.529 5.345,0.584 7.973,0.164c0.95,2.486 2.319,4.756 4.105,6.809c1.786,2.054 3.893,3.781 6.319,5.182c2.699,1.558 5.499,2.574 8.4,3.047c2.901,0.473 5.693,0.435 8.375,-0.114c2.683,-0.549 5.142,-1.586 7.377,-3.112c2.235,-1.525 4.044,-3.484 5.426,-5.878l23.855,-41.318l-0.028,-0.016l23.855,-41.319c0.466,-0.807 1.076,-1.459 1.828,-1.957c0.753,-0.498 1.576,-0.839 2.47,-1.022c0.894,-0.183 1.821,-0.195 2.781,-0.036c0.959,0.16 1.893,0.502 2.803,1.027c0.91,0.526 1.674,1.164 2.291,1.915c0.618,0.751 1.071,1.56 1.36,2.426c0.288,0.866 0.397,1.745 0.327,2.637c-0.07,0.892 -0.338,1.741 -0.804,2.548l-23.855,41.318l13.056,7.538l23.855,-41.318c0.466,-0.807 1.067,-1.464 1.805,-1.971c0.737,-0.507 1.553,-0.852 2.447,-1.035c0.894,-0.183 1.821,-0.195 2.78,-0.035c0.96,0.159 1.894,0.501 2.804,1.027c0.91,0.525 1.674,1.163 2.291,1.914c0.618,0.751 1.071,1.56 1.36,2.426c0.288,0.866 0.397,1.745 0.327,2.637c-0.07,0.892 -0.338,1.741 -0.804,2.548l-23.855,41.318l13.056,7.538l23.855,-41.318c1.382,-2.394 2.175,-4.94 2.378,-7.638c0.203,-2.699 -0.128,-5.347 -0.994,-7.945c-0.865,-2.598 -2.228,-5.034 -4.089,-7.31c-1.86,-2.276 -4.14,-4.193 -6.839,-5.751c-2.426,-1.401 -4.983,-2.365 -7.669,-2.894c-2.687,-0.53 -5.345,-0.584 -7.972,-0.165c-0.951,-2.485 -2.32,-4.755 -4.106,-6.809c-1.786,-2.053 -3.893,-3.78 -6.319,-5.181c-2.699,-1.558 -5.499,-2.574 -8.4,-3.047c-2.901,-0.474 -5.693,-0.436 -8.375,0.114c-2.683,0.549 -5.142,1.586 -7.377,3.111c-2.235,1.525 -4.044,3.485 -5.426,5.879l-23.855,41.318" style="fill:#b8ea86;"/><path d="M567.589,444.045l-23.855,41.318c-0.466,0.807 -1.075,1.459 -1.828,1.957c-0.752,0.498 -1.576,0.839 -2.47,1.022c-0.894,0.183 -1.821,0.195 -2.78,0.036c-0.96,-0.16 -1.894,-0.502 -2.804,-1.027c-0.91,-0.526 -1.673,-1.164 -2.291,-1.915c-0.618,-0.751 -1.071,-1.56 -1.359,-2.426c-0.289,-0.866 -0.398,-1.745 -0.328,-2.637c0.07,-0.892 0.338,-1.741 0.804,-2.548l23.855,-41.318l-13.055,-7.538l-23.855,41.318c-0.466,0.807 -1.068,1.464 -1.805,1.971c-0.738,0.507 -1.554,0.852 -2.448,1.035c-0.894,0.183 -1.821,0.195 -2.78,0.036c-0.959,-0.16 -1.894,-0.502 -2.804,-1.027c-0.91,-0.526 -1.673,-1.164 -2.291,-1.915c-0.618,-0.751 -1.071,-1.56 -1.359,-2.426c-0.289,-0.866 -0.398,-1.745 -0.328,-2.637c0.07,-0.892 0.339,-1.741 0.804,-2.548l23.855,-41.318l-13.055,-7.538l-23.855,41.318c-1.382,2.394 -2.175,4.94 -2.378,7.639c-0.204,2.698 0.128,5.346 0.993,7.944c0.866,2.598 2.229,5.034 4.089,7.31c1.86,2.276 4.14,4.193 6.839,5.751c2.426,1.401 4.983,2.366 7.67,2.895c2.687,0.529 5.344,0.583 7.972,0.164c0.95,2.485 2.319,4.755 4.105,6.809c1.787,2.053 3.893,3.78 6.319,5.181c2.699,1.558 5.499,2.574 8.4,3.048c2.901,0.473 5.693,0.435 8.376,-0.114c2.682,-0.55 5.141,-1.587 7.376,-3.112c2.235,-1.525 4.044,-3.485 5.426,-5.879l23.855,-41.318l-0.027,-0.016l23.855,-41.318c0.466,-0.807 1.075,-1.46 1.827,-1.958c0.753,-0.498 1.576,-0.838 2.471,-1.021c0.894,-0.184 1.821,-0.195 2.78,-0.036c0.959,0.159 1.894,0.502 2.804,1.027c0.909,0.525 1.673,1.163 2.291,1.914c0.617,0.752 1.07,1.56 1.359,2.426c0.289,0.866 0.398,1.745 0.328,2.637c-0.071,0.892 -0.339,1.742 -0.805,2.549l-23.855,41.318l13.056,7.537l23.855,-41.318c0.466,-0.807 1.068,-1.464 1.805,-1.97c0.737,-0.507 1.553,-0.852 2.447,-1.035c0.895,-0.183 1.821,-0.195 2.781,-0.036c0.959,0.159 1.894,0.502 2.803,1.027c0.91,0.525 1.674,1.163 2.292,1.915c0.617,0.751 1.07,1.559 1.359,2.425c0.288,0.866 0.398,1.745 0.327,2.637c-0.07,0.892 -0.338,1.742 -0.804,2.549l-23.855,41.318l13.056,7.538l23.855,-41.319c1.382,-2.394 2.175,-4.94 2.378,-7.638c0.203,-2.698 -0.128,-5.346 -0.994,-7.944c-0.865,-2.598 -2.228,-5.035 -4.088,-7.31c-1.861,-2.276 -4.141,-4.193 -6.84,-5.751c-2.426,-1.401 -4.982,-2.366 -7.669,-2.895c-2.687,-0.529 -5.344,-0.584 -7.972,-0.164c-0.951,-2.486 -2.319,-4.755 -4.106,-6.809c-1.786,-2.054 -3.892,-3.781 -6.319,-5.182c-2.699,-1.558 -5.499,-2.574 -8.4,-3.047c-2.9,-0.473 -5.692,-0.435 -8.375,0.114c-2.683,0.549 -5.141,1.587 -7.377,3.112c-2.235,1.525 -4.043,3.484 -5.426,5.878l-23.855,41.319" style="fill:#b8ea86;"/><path d="M257.617,441.607l23.855,-41.318c0.466,-0.807 1.076,-1.46 1.828,-1.958c0.753,-0.498 1.576,-0.838 2.47,-1.021c0.895,-0.183 1.821,-0.195 2.781,-0.036c0.959,0.159 1.894,0.502 2.803,1.027c0.91,0.525 1.674,1.163 2.292,1.915c0.617,0.751 1.07,1.559 1.359,2.425c0.288,0.866 0.398,1.745 0.327,2.637c-0.07,0.892 -0.338,1.742 -0.804,2.549l-23.855,41.318l13.056,7.537l23.855,-41.318c0.466,-0.807 1.067,-1.464 1.805,-1.97c0.737,-0.507 1.553,-0.852 2.447,-1.035c0.894,-0.183 1.821,-0.195 2.781,-0.036c0.959,0.159 1.893,0.502 2.803,1.027c0.91,0.525 1.674,1.164 2.291,1.915c0.618,0.751 1.071,1.559 1.36,2.425c0.288,0.866 0.397,1.745 0.327,2.637c-0.07,0.892 -0.338,1.742 -0.804,2.549l-23.855,41.318l13.056,7.538l23.855,-41.319c1.382,-2.394 2.175,-4.94 2.378,-7.638c0.203,-2.698 -0.128,-5.346 -0.994,-7.944c-0.865,-2.598 -2.228,-5.035 -4.089,-7.31c-1.86,-2.276 -4.14,-4.193 -6.839,-5.751c-2.426,-1.401 -4.982,-2.366 -7.669,-2.895c-2.687,-0.529 -5.344,-0.584 -7.972,-0.164c-0.951,-2.486 -2.32,-4.755 -4.106,-6.809c-1.786,-2.054 -3.893,-3.781 -6.319,-5.181c-2.699,-1.559 -5.499,-2.575 -8.4,-3.048c-2.901,-0.473 -5.692,-0.435 -8.375,0.114c-2.683,0.549 -5.142,1.587 -7.377,3.112c-2.235,1.525 -4.044,3.484 -5.426,5.878l-23.855,41.319l0.028,0.016l-23.855,41.318c-0.466,0.807 -1.075,1.459 -1.828,1.957c-0.752,0.498 -1.576,0.839 -2.47,1.022c-0.894,0.183 -1.821,0.195 -2.78,0.036c-0.96,-0.16 -1.894,-0.502 -2.804,-1.027c-0.91,-0.525 -1.674,-1.164 -2.291,-1.915c-0.618,-0.751 -1.071,-1.56 -1.36,-2.426c-0.288,-0.865 -0.397,-1.744 -0.327,-2.636c0.07,-0.892 0.338,-1.742 0.804,-2.549l23.855,-41.318l-13.056,-7.538l-23.855,41.318c-0.465,0.807 -1.067,1.464 -1.805,1.971c-0.737,0.507 -1.553,0.852 -2.447,1.035c-0.894,0.183 -1.821,0.195 -2.78,0.036c-0.96,-0.16 -1.894,-0.502 -2.804,-1.027c-0.91,-0.526 -1.674,-1.164 -2.291,-1.915c-0.618,-0.751 -1.071,-1.56 -1.359,-2.426c-0.289,-0.866 -0.398,-1.745 -0.328,-2.637c0.07,-0.892 0.338,-1.741 0.804,-2.548l23.855,-41.318l-13.055,-7.538l-23.855,41.318c-1.383,2.394 -2.175,4.94 -2.379,7.639c-0.203,2.698 0.128,5.346 0.994,7.944c0.866,2.598 2.229,5.034 4.089,7.31c1.86,2.276 4.14,4.193 6.839,5.751c2.426,1.401 4.983,2.366 7.67,2.895c2.686,0.529 5.344,0.583 7.972,0.164c0.95,2.486 2.319,4.755 4.105,6.809c1.787,2.053 3.893,3.78 6.319,5.181c2.699,1.558 5.499,2.574 8.4,3.048c2.901,0.473 5.693,0.435 8.375,-0.114c2.683,-0.55 5.142,-1.587 7.377,-3.112c2.235,-1.525 4.044,-3.485 5.426,-5.879l23.855,-41.318" style="fill:#b8ea86;"/><path d="M-38.509,50.767l-23.855,41.318c-0.466,0.807 -1.076,1.46 -1.828,1.958c-0.753,0.498 -1.576,0.838 -2.47,1.022c-0.895,0.183 -1.821,0.195 -2.781,0.035c-0.959,-0.159 -1.894,-0.501 -2.803,-1.027c-0.91,-0.525 -1.674,-1.163 -2.292,-1.914c-0.617,-0.751 -1.07,-1.56 -1.359,-2.426c-0.288,-0.866 -0.397,-1.745 -0.327,-2.637c0.07,-0.892 0.338,-1.741 0.804,-2.548l23.855,-41.319l-13.056,-7.537l-23.855,41.318c-0.466,0.807 -1.067,1.464 -1.805,1.971c-0.737,0.506 -1.553,0.851 -2.447,1.034c-0.894,0.184 -1.821,0.195 -2.781,0.036c-0.959,-0.159 -1.893,-0.502 -2.803,-1.027c-0.91,-0.525 -1.674,-1.163 -2.291,-1.914c-0.618,-0.752 -1.071,-1.56 -1.36,-2.426c-0.288,-0.866 -0.397,-1.745 -0.327,-2.637c0.07,-0.892 0.338,-1.742 0.804,-2.549l23.855,-41.318l-13.056,-7.537l-23.855,41.318c-1.382,2.394 -2.175,4.94 -2.378,7.638c-0.203,2.698 0.128,5.346 0.994,7.944c0.865,2.598 2.228,5.035 4.089,7.311c1.86,2.275 4.14,4.192 6.839,5.751c2.426,1.4 4.982,2.365 7.669,2.894c2.687,0.529 5.344,0.584 7.972,0.164c0.951,2.486 2.32,4.756 4.106,6.809c1.786,2.054 3.893,3.781 6.319,5.182c2.699,1.558 5.499,2.574 8.4,3.047c2.901,0.473 5.692,0.435 8.375,-0.114c2.683,-0.549 5.142,-1.586 7.377,-3.112c2.235,-1.525 4.044,-3.484 5.426,-5.878l23.855,-41.318l-0.028,-0.016l23.855,-41.319c0.466,-0.807 1.075,-1.459 1.828,-1.957c0.752,-0.498 1.576,-0.839 2.47,-1.022c0.894,-0.183 1.821,-0.195 2.78,-0.035c0.96,0.159 1.894,0.501 2.804,1.026c0.91,0.526 1.674,1.164 2.291,1.915c0.618,0.751 1.071,1.56 1.36,2.426c0.288,0.866 0.397,1.745 0.327,2.637c-0.07,0.892 -0.338,1.741 -0.804,2.548l-23.855,41.318l13.056,7.538l23.855,-41.318c0.465,-0.807 1.067,-1.464 1.805,-1.971c0.737,-0.507 1.553,-0.852 2.447,-1.035c0.894,-0.183 1.821,-0.195 2.78,-0.035c0.96,0.159 1.894,0.501 2.804,1.027c0.91,0.525 1.674,1.163 2.291,1.914c0.618,0.751 1.071,1.56 1.359,2.426c0.289,0.866 0.398,1.745 0.328,2.637c-0.07,0.892 -0.338,1.741 -0.804,2.548l-23.855,41.318l13.055,7.538l23.855,-41.318c1.383,-2.394 2.175,-4.94 2.379,-7.638c0.203,-2.699 -0.128,-5.347 -0.994,-7.945c-0.866,-2.597 -2.228,-5.034 -4.089,-7.31c-1.86,-2.275 -4.14,-4.192 -6.839,-5.751c-2.426,-1.401 -4.983,-2.365 -7.669,-2.894c-2.687,-0.529 -5.345,-0.584 -7.973,-0.165c-0.95,-2.485 -2.319,-4.755 -4.105,-6.808c-1.787,-2.054 -3.893,-3.781 -6.319,-5.182c-2.699,-1.558 -5.499,-2.574 -8.4,-3.047c-2.901,-0.474 -5.693,-0.436 -8.375,0.114c-2.683,0.549 -5.142,1.586 -7.377,3.111c-2.235,1.525 -4.044,3.485 -5.426,5.879l-23.855,41.318" style="fill:#b8ea86;"/><path d="M264.697,247.032l-23.855,41.319c-0.466,0.807 -1.075,1.459 -1.828,1.957c-0.752,0.498 -1.576,0.839 -2.47,1.022c-0.894,0.183 -1.821,0.195 -2.78,0.036c-0.959,-0.16 -1.894,-0.502 -2.804,-1.027c-0.91,-0.526 -1.673,-1.164 -2.291,-1.915c-0.618,-0.751 -1.071,-1.56 -1.359,-2.426c-0.289,-0.866 -0.398,-1.745 -0.328,-2.637c0.07,-0.892 0.339,-1.741 0.804,-2.548l23.855,-41.318l-13.055,-7.538l-23.855,41.318c-0.466,0.807 -1.068,1.464 -1.805,1.971c-0.738,0.507 -1.553,0.852 -2.448,1.035c-0.894,0.183 -1.821,0.195 -2.78,0.035c-0.959,-0.159 -1.894,-0.501 -2.804,-1.027c-0.909,-0.525 -1.673,-1.163 -2.291,-1.914c-0.618,-0.751 -1.071,-1.56 -1.359,-2.426c-0.289,-0.866 -0.398,-1.745 -0.328,-2.637c0.071,-0.892 0.339,-1.741 0.805,-2.548l23.855,-41.318l-13.056,-7.538l-23.855,41.318c-1.382,2.394 -2.175,4.94 -2.378,7.638c-0.204,2.699 0.128,5.347 0.993,7.945c0.866,2.598 2.229,5.034 4.089,7.31c1.861,2.276 4.14,4.193 6.839,5.751c2.427,1.401 4.983,2.365 7.67,2.895c2.687,0.529 5.344,0.583 7.972,0.164c0.951,2.485 2.319,4.755 4.105,6.809c1.787,2.053 3.893,3.78 6.319,5.181c2.699,1.558 5.499,2.574 8.4,3.047c2.901,0.474 5.693,0.436 8.376,-0.114c2.682,-0.549 5.141,-1.586 7.376,-3.111c2.235,-1.525 4.044,-3.485 5.426,-5.879l23.855,-41.318l-0.027,-0.016l23.855,-41.318c0.466,-0.807 1.075,-1.46 1.827,-1.958c0.753,-0.498 1.576,-0.838 2.471,-1.021c0.894,-0.184 1.821,-0.195 2.78,-0.036c0.959,0.159 1.894,0.502 2.804,1.027c0.909,0.525 1.673,1.163 2.291,1.914c0.617,0.752 1.071,1.56 1.359,2.426c0.289,0.866 0.398,1.745 0.328,2.637c-0.071,0.892 -0.339,1.742 -0.805,2.549l-23.855,41.318l13.056,7.537l23.855,-41.318c0.466,-0.807 1.068,-1.464 1.805,-1.97c0.737,-0.507 1.553,-0.852 2.447,-1.035c0.895,-0.183 1.821,-0.195 2.781,-0.036c0.959,0.159 1.894,0.502 2.804,1.027c0.909,0.525 1.673,1.163 2.291,1.915c0.617,0.751 1.07,1.559 1.359,2.425c0.289,0.866 0.398,1.745 0.327,2.637c-0.07,0.892 -0.338,1.742 -0.804,2.549l-23.855,41.318l13.056,7.538l23.855,-41.319c1.382,-2.394 2.175,-4.94 2.378,-7.638c0.203,-2.698 -0.128,-5.346 -0.993,-7.944c-0.866,-2.598 -2.229,-5.035 -4.089,-7.311c-1.861,-2.275 -4.14,-4.192 -6.84,-5.75c-2.426,-1.401 -4.982,-2.366 -7.669,-2.895c-2.687,-0.529 -5.344,-0.584 -7.972,-0.164c-0.951,-2.486 -2.319,-4.756 -4.106,-6.809c-1.786,-2.054 -3.892,-3.781 -6.318,-5.182c-2.7,-1.558 -5.5,-2.574 -8.4,-3.047c-2.901,-0.473 -5.693,-0.435 -8.376,0.114c-2.682,0.549 -5.141,1.587 -7.376,3.112c-2.236,1.525 -4.044,3.484 -5.426,5.878l-23.856,41.319" style="fill:#b8ea86;"/><path d="M-45.589,245.342l23.855,-41.318c0.466,-0.807 1.075,-1.46 1.828,-1.958c0.752,-0.498 1.576,-0.839 2.47,-1.022c0.894,-0.183 1.821,-0.195 2.78,-0.035c0.959,0.159 1.894,0.501 2.804,1.027c0.91,0.525 1.673,1.163 2.291,1.914c0.618,0.751 1.071,1.56 1.359,2.426c0.289,0.866 0.398,1.745 0.328,2.637c-0.07,0.892 -0.338,1.741 -0.804,2.548l-23.855,41.318l13.055,7.538l23.855,-41.318c0.466,-0.807 1.068,-1.464 1.805,-1.971c0.738,-0.506 1.553,-0.851 2.448,-1.035c0.894,-0.183 1.821,-0.195 2.78,-0.035c0.959,0.159 1.894,0.501 2.804,1.027c0.91,0.525 1.673,1.163 2.291,1.914c0.618,0.751 1.071,1.56 1.359,2.426c0.289,0.866 0.398,1.745 0.328,2.637c-0.071,0.892 -0.339,1.741 -0.805,2.548l-23.855,41.319l13.056,7.537l23.855,-41.318c1.382,-2.394 2.175,-4.94 2.378,-7.638c0.204,-2.698 -0.128,-5.347 -0.993,-7.944c-0.866,-2.598 -2.229,-5.035 -4.089,-7.311c-1.861,-2.275 -4.14,-4.192 -6.839,-5.751c-2.427,-1.4 -4.983,-2.365 -7.67,-2.894c-2.687,-0.529 -5.344,-0.584 -7.972,-0.165c-0.951,-2.485 -2.319,-4.755 -4.105,-6.808c-1.787,-2.054 -3.893,-3.781 -6.319,-5.182c-2.699,-1.558 -5.499,-2.574 -8.4,-3.047c-2.901,-0.474 -5.693,-0.436 -8.376,0.114c-2.682,0.549 -5.141,1.586 -7.376,3.111c-2.235,1.526 -4.044,3.485 -5.426,5.879l-23.855,41.318l0.027,0.016l-23.855,41.318c-0.466,0.807 -1.075,1.46 -1.827,1.958c-0.753,0.498 -1.576,0.839 -2.471,1.022c-0.894,0.183 -1.821,0.195 -2.78,0.035c-0.959,-0.159 -1.894,-0.501 -2.804,-1.027c-0.909,-0.525 -1.673,-1.163 -2.291,-1.914c-0.617,-0.751 -1.071,-1.56 -1.359,-2.426c-0.289,-0.866 -0.398,-1.745 -0.328,-2.637c0.071,-0.892 0.339,-1.741 0.805,-2.548l23.855,-41.318l-13.056,-7.538l-23.855,41.318c-0.466,0.807 -1.068,1.464 -1.805,1.971c-0.737,0.506 -1.553,0.851 -2.447,1.035c-0.895,0.183 -1.821,0.195 -2.781,0.035c-0.959,-0.159 -1.894,-0.501 -2.804,-1.027c-0.909,-0.525 -1.673,-1.163 -2.291,-1.914c-0.617,-0.751 -1.07,-1.56 -1.359,-2.426c-0.289,-0.866 -0.398,-1.745 -0.327,-2.637c0.07,-0.892 0.338,-1.741 0.804,-2.548l23.855,-41.319l-13.056,-7.537l-23.855,41.318c-1.382,2.394 -2.175,4.94 -2.378,7.638c-0.203,2.698 0.128,5.347 0.993,7.944c0.866,2.598 2.229,5.035 4.089,7.311c1.861,2.275 4.14,4.192 6.84,5.751c2.426,1.4 4.982,2.365 7.669,2.894c2.687,0.529 5.344,0.584 7.972,0.165c0.951,2.485 2.319,4.755 4.106,6.808c1.786,2.054 3.892,3.781 6.318,5.182c2.7,1.558 5.5,2.574 8.4,3.047c2.901,0.474 5.693,0.436 8.376,-0.114c2.683,-0.549 5.141,-1.586 7.376,-3.111c2.236,-1.525 4.044,-3.485 5.426,-5.879l23.856,-41.318" style="fill:#b8ea86;"/><path d="M112.908,149.207l-23.855,41.318c-0.466,0.807 -1.075,1.459 -1.827,1.957c-0.753,0.499 -1.576,0.839 -2.471,1.022c-0.894,0.183 -1.821,0.195 -2.78,0.036c-0.959,-0.159 -1.894,-0.502 -2.804,-1.027c-0.909,-0.525 -1.673,-1.164 -2.291,-1.915c-0.618,-0.751 -1.071,-1.559 -1.359,-2.425c-0.289,-0.866 -0.398,-1.745 -0.328,-2.637c0.071,-0.892 0.339,-1.742 0.805,-2.549l23.855,-41.318l-13.056,-7.538l-23.855,41.319c-0.466,0.806 -1.068,1.463 -1.805,1.97c-0.738,0.507 -1.553,0.852 -2.448,1.035c-0.894,0.183 -1.821,0.195 -2.78,0.036c-0.959,-0.16 -1.894,-0.502 -2.804,-1.027c-0.909,-0.525 -1.673,-1.164 -2.291,-1.915c-0.617,-0.751 -1.071,-1.56 -1.359,-2.425c-0.289,-0.866 -0.398,-1.745 -0.328,-2.637c0.071,-0.892 0.339,-1.742 0.805,-2.549l23.855,-41.318l-13.056,-7.538l-23.855,41.318c-1.382,2.394 -2.175,4.941 -2.378,7.639c-0.203,2.698 0.128,5.346 0.993,7.944c0.866,2.598 2.229,5.035 4.089,7.31c1.861,2.276 4.14,4.193 6.839,5.751c2.427,1.401 4.983,2.366 7.67,2.895c2.687,0.529 5.344,0.584 7.972,0.164c0.951,2.486 2.319,4.755 4.106,6.809c1.786,2.053 3.892,3.781 6.318,5.181c2.699,1.559 5.499,2.574 8.4,3.048c2.901,0.473 5.693,0.435 8.376,-0.114c2.682,-0.55 5.141,-1.587 7.376,-3.112c2.236,-1.525 4.044,-3.485 5.426,-5.879l23.855,-41.318l-0.027,-0.016l23.855,-41.318c0.466,-0.807 1.075,-1.459 1.828,-1.957c0.752,-0.498 1.575,-0.839 2.47,-1.022c0.894,-0.183 1.821,-0.195 2.78,-0.036c0.959,0.159 1.894,0.502 2.804,1.027c0.91,0.525 1.673,1.164 2.291,1.915c0.618,0.751 1.071,1.559 1.359,2.425c0.289,0.866 0.398,1.745 0.328,2.637c-0.07,0.892 -0.339,1.742 -0.804,2.549l-23.856,41.318l13.056,7.538l23.855,-41.318c0.466,-0.807 1.068,-1.464 1.805,-1.971c0.738,-0.507 1.553,-0.852 2.448,-1.035c0.894,-0.183 1.821,-0.195 2.78,-0.036c0.959,0.16 1.894,0.502 2.804,1.027c0.909,0.525 1.673,1.164 2.291,1.915c0.617,0.751 1.071,1.56 1.359,2.426c0.289,0.865 0.398,1.744 0.328,2.636c-0.071,0.892 -0.339,1.742 -0.805,2.549l-23.855,41.318l13.056,7.538l23.855,-41.318c1.382,-2.394 2.175,-4.941 2.378,-7.639c0.203,-2.698 -0.128,-5.346 -0.993,-7.944c-0.866,-2.598 -2.229,-5.035 -4.089,-7.31c-1.861,-2.276 -4.14,-4.193 -6.839,-5.751c-2.427,-1.401 -4.983,-2.366 -7.67,-2.895c-2.687,-0.529 -5.344,-0.584 -7.972,-0.164c-0.951,-2.486 -2.319,-4.755 -4.106,-6.809c-1.786,-2.053 -3.892,-3.781 -6.318,-5.181c-2.699,-1.559 -5.499,-2.574 -8.4,-3.048c-2.901,-0.473 -5.693,-0.435 -8.376,0.114c-2.682,0.55 -5.141,1.587 -7.376,3.112c-2.235,1.525 -4.044,3.485 -5.426,5.879l-23.855,41.318" style="fill:#b8ea86;"/></g><g><path d="M17.481,286.436l23.855,-41.318c1.382,-2.394 3.191,-4.354 5.426,-5.879c2.235,-1.525 4.694,-2.562 7.376,-3.111c2.683,-0.55 5.475,-0.588 8.376,-0.114c2.901,0.473 5.701,1.489 8.4,3.047c2.426,1.401 4.54,3.132 6.341,5.195c1.802,2.062 3.178,4.336 4.129,6.822c2.628,-0.42 5.277,-0.37 7.949,0.151c2.672,0.52 5.221,1.481 7.647,2.881c2.699,1.559 4.979,3.476 6.839,5.751c1.86,2.276 3.223,4.713 4.089,7.31c0.865,2.598 1.197,5.246 0.993,7.945c-0.203,2.698 -0.996,5.244 -2.378,7.638l-23.855,41.318l-13.01,-7.511l23.855,-41.318c0.466,-0.807 0.726,-1.661 0.781,-2.562c0.056,-0.901 -0.061,-1.784 -0.35,-2.65c-0.288,-0.866 -0.741,-1.675 -1.359,-2.426c-0.618,-0.751 -1.381,-1.389 -2.291,-1.914c-0.91,-0.526 -1.845,-0.868 -2.804,-1.027c-0.959,-0.16 -1.886,-0.148 -2.78,0.035c-0.894,0.183 -1.71,0.528 -2.448,1.035c-0.737,0.507 -1.339,1.164 -1.805,1.971l-23.855,41.318l-13.055,-7.538l23.855,-41.318c0.466,-0.807 0.734,-1.656 0.804,-2.548c0.07,-0.892 -0.039,-1.771 -0.328,-2.637c-0.288,-0.866 -0.741,-1.675 -1.359,-2.426c-0.618,-0.751 -1.381,-1.389 -2.291,-1.915c-0.91,-0.525 -1.844,-0.867 -2.804,-1.026c-0.959,-0.16 -1.886,-0.148 -2.78,0.035c-0.894,0.183 -1.71,0.528 -2.448,1.035c-0.737,0.507 -1.339,1.164 -1.805,1.971l-23.855,41.318l-0.017,-0.01l-23.855,41.318c-1.383,2.394 -3.191,4.353 -5.426,5.878c-2.236,1.526 -4.694,2.563 -7.377,3.112c-2.683,0.549 -5.475,0.588 -8.375,0.114c-2.901,-0.473 -5.701,-1.489 -8.4,-3.047c-2.427,-1.401 -4.54,-3.133 -6.342,-5.195c-1.802,-2.062 -3.178,-4.336 -4.128,-6.822c-2.628,0.42 -5.278,0.369 -7.95,-0.151c-2.671,-0.52 -5.22,-1.481 -7.646,-2.881c-2.699,-1.559 -4.979,-3.476 -6.84,-5.751c-1.86,-2.276 -3.223,-4.713 -4.088,-7.311c-0.866,-2.598 -1.197,-5.246 -0.994,-7.944c0.203,-2.698 0.996,-5.244 2.378,-7.638l23.855,-41.318l13.01,7.511l-23.855,41.318c-0.466,0.807 -0.726,1.661 -0.781,2.562c-0.055,0.901 0.062,1.784 0.35,2.65c0.289,0.866 0.742,1.674 1.359,2.426c0.618,0.751 1.382,1.389 2.292,1.914c0.909,0.525 1.844,0.868 2.803,1.027c0.96,0.159 1.886,0.148 2.781,-0.036c0.894,-0.183 1.71,-0.528 2.447,-1.034c0.737,-0.507 1.339,-1.164 1.805,-1.971l23.855,-41.318l13.056,7.537l-23.855,41.319c-0.466,0.807 -0.734,1.656 -0.805,2.548c-0.07,0.892 0.039,1.771 0.328,2.637c0.289,0.866 0.742,1.675 1.359,2.426c0.618,0.751 1.382,1.389 2.291,1.914c0.91,0.526 1.845,0.868 2.804,1.027c0.959,0.16 1.886,0.148 2.78,-0.035c0.895,-0.184 1.711,-0.528 2.448,-1.035c0.737,-0.507 1.339,-1.164 1.805,-1.971l23.855,-41.318" style="fill:#ea86ea;"/><path d="M504.834,402.203l-23.855,41.318c-1.382,2.395 -3.191,4.354 -5.426,5.879c-2.235,1.525 -4.694,2.563 -7.377,3.112c-2.683,0.549 -5.474,0.587 -8.375,0.114c-2.901,-0.473 -5.701,-1.489 -8.4,-3.048c-2.426,-1.4 -4.54,-3.132 -6.342,-5.194c-1.801,-2.062 -3.177,-4.336 -4.128,-6.822c-2.628,0.419 -5.278,0.369 -7.949,-0.151c-2.672,-0.52 -5.221,-1.481 -7.647,-2.882c-2.699,-1.558 -4.979,-3.475 -6.839,-5.751c-1.861,-2.275 -3.224,-4.712 -4.089,-7.31c-0.866,-2.598 -1.197,-5.246 -0.994,-7.944c0.203,-2.698 0.996,-5.244 2.378,-7.638l23.855,-41.319l13.011,7.512l-23.855,41.318c-0.466,0.807 -0.727,1.661 -0.782,2.562c-0.055,0.9 0.062,1.784 0.35,2.65c0.289,0.866 0.742,1.674 1.36,2.425c0.617,0.751 1.381,1.39 2.291,1.915c0.91,0.525 1.844,0.868 2.803,1.027c0.96,0.159 1.887,0.147 2.781,-0.036c0.894,-0.183 1.71,-0.528 2.447,-1.035c0.738,-0.506 1.339,-1.163 1.805,-1.97l23.855,-41.318l13.056,7.537l-23.855,41.318c-0.466,0.807 -0.734,1.657 -0.804,2.549c-0.07,0.892 0.039,1.771 0.327,2.637c0.289,0.866 0.742,1.674 1.359,2.425c0.618,0.752 1.382,1.39 2.292,1.915c0.909,0.525 1.844,0.868 2.803,1.027c0.96,0.159 1.886,0.147 2.781,-0.036c0.894,-0.183 1.71,-0.528 2.447,-1.035c0.738,-0.506 1.339,-1.163 1.805,-1.97l23.855,-41.318l0.018,0.01l23.855,-41.318c1.382,-2.394 3.191,-4.354 5.426,-5.879c2.235,-1.525 4.694,-2.562 7.377,-3.112c2.682,-0.549 5.474,-0.587 8.375,-0.114c2.901,0.474 5.701,1.49 8.4,3.048c2.426,1.401 4.54,3.132 6.342,5.194c1.801,2.063 3.177,4.337 4.128,6.822c2.628,-0.419 5.278,-0.369 7.949,0.151c2.672,0.521 5.221,1.481 7.647,2.882c2.699,1.558 4.979,3.475 6.839,5.751c1.86,2.276 3.223,4.712 4.089,7.31c0.866,2.598 1.197,5.246 0.994,7.944c-0.204,2.699 -0.996,5.245 -2.379,7.639l-23.855,41.318l-13.01,-7.511l23.855,-41.319c0.466,-0.807 0.727,-1.661 0.782,-2.561c0.055,-0.901 -0.062,-1.784 -0.351,-2.65c-0.288,-0.866 -0.741,-1.675 -1.359,-2.426c-0.617,-0.751 -1.381,-1.389 -2.291,-1.915c-0.91,-0.525 -1.844,-0.867 -2.804,-1.027c-0.959,-0.159 -1.886,-0.147 -2.78,0.036c-0.894,0.183 -1.71,0.528 -2.447,1.035c-0.738,0.507 -1.34,1.164 -1.805,1.971l-23.855,41.318l-13.056,-7.538l23.855,-41.318c0.466,-0.807 0.734,-1.657 0.804,-2.549c0.07,-0.892 -0.039,-1.771 -0.327,-2.636c-0.289,-0.866 -0.742,-1.675 -1.36,-2.426c-0.617,-0.751 -1.381,-1.39 -2.291,-1.915c-0.91,-0.525 -1.844,-0.867 -2.804,-1.027c-0.959,-0.159 -1.886,-0.147 -2.78,0.036c-0.894,0.183 -1.71,0.528 -2.447,1.035c-0.738,0.507 -1.339,1.164 -1.805,1.971l-23.855,41.318" style="fill:#ea86ea;"/><path d="M168.898,384.876l23.855,-41.318c1.383,-2.394 3.191,-4.354 5.426,-5.879c2.236,-1.525 4.694,-2.562 7.377,-3.112c2.683,-0.549 5.475,-0.587 8.375,-0.114c2.901,0.474 5.701,1.489 8.4,3.048c2.427,1.4 4.54,3.132 6.342,5.194c1.802,2.063 3.178,4.337 4.128,6.822c2.628,-0.419 5.278,-0.369 7.95,0.151c2.671,0.521 5.22,1.481 7.646,2.882c2.699,1.558 4.979,3.475 6.84,5.751c1.86,2.275 3.223,4.712 4.088,7.31c0.866,2.598 1.197,5.246 0.994,7.944c-0.203,2.698 -0.996,5.245 -2.378,7.639l-23.855,41.318l-13.01,-7.512l23.855,-41.318c0.466,-0.807 0.726,-1.661 0.781,-2.561c0.055,-0.901 -0.062,-1.784 -0.35,-2.65c-0.289,-0.866 -0.742,-1.675 -1.359,-2.426c-0.618,-0.751 -1.382,-1.389 -2.292,-1.915c-0.909,-0.525 -1.844,-0.867 -2.803,-1.027c-0.96,-0.159 -1.886,-0.147 -2.781,0.036c-0.894,0.183 -1.71,0.528 -2.447,1.035c-0.737,0.507 -1.339,1.164 -1.805,1.971l-23.855,41.318l-13.056,-7.538l23.855,-41.318c0.466,-0.807 0.734,-1.657 0.804,-2.549c0.071,-0.892 -0.038,-1.771 -0.327,-2.637c-0.289,-0.866 -0.742,-1.674 -1.359,-2.425c-0.618,-0.751 -1.382,-1.39 -2.291,-1.915c-0.91,-0.525 -1.845,-0.867 -2.804,-1.027c-0.96,-0.159 -1.886,-0.147 -2.781,0.036c-0.894,0.183 -1.71,0.528 -2.447,1.035c-0.737,0.506 -1.339,1.163 -1.805,1.97l-23.855,41.319l-0.018,-0.011l-23.855,41.318c-1.382,2.394 -3.191,4.354 -5.426,5.879c-2.235,1.525 -4.694,2.562 -7.376,3.112c-2.683,0.549 -5.475,0.587 -8.376,0.114c-2.901,-0.474 -5.701,-1.489 -8.4,-3.048c-2.426,-1.4 -4.54,-3.132 -6.341,-5.194c-1.802,-2.063 -3.178,-4.337 -4.129,-6.822c-2.628,0.419 -5.277,0.369 -7.949,-0.151c-2.672,-0.521 -5.221,-1.481 -7.647,-2.882c-2.699,-1.558 -4.979,-3.475 -6.839,-5.751c-1.86,-2.275 -3.223,-4.712 -4.089,-7.31c-0.865,-2.598 -1.197,-5.246 -0.993,-7.944c0.203,-2.698 0.996,-5.245 2.378,-7.639l23.855,-41.318l13.01,7.512l-23.855,41.318c-0.466,0.807 -0.726,1.661 -0.781,2.561c-0.056,0.901 0.061,1.785 0.35,2.651c0.288,0.866 0.741,1.674 1.359,2.425c0.618,0.751 1.381,1.39 2.291,1.915c0.91,0.525 1.845,0.867 2.804,1.027c0.959,0.159 1.886,0.147 2.78,-0.036c0.894,-0.183 1.71,-0.528 2.448,-1.035c0.737,-0.507 1.339,-1.163 1.805,-1.97l23.855,-41.319l13.055,7.538l-23.855,41.318c-0.466,0.807 -0.734,1.657 -0.804,2.549c-0.07,0.892 0.039,1.771 0.328,2.637c0.288,0.866 0.741,1.674 1.359,2.425c0.618,0.751 1.381,1.39 2.291,1.915c0.91,0.525 1.844,0.868 2.804,1.027c0.959,0.159 1.886,0.147 2.78,-0.036c0.894,-0.183 1.71,-0.528 2.448,-1.035c0.737,-0.506 1.339,-1.163 1.805,-1.97l23.855,-41.318" style="fill:#ea86ea;"/><path d="M353.416,303.764l-23.855,41.318c-1.382,2.394 -3.191,4.354 -5.426,5.879c-2.235,1.525 -4.694,2.562 -7.377,3.111c-2.682,0.55 -5.474,0.588 -8.375,0.114c-2.901,-0.473 -5.701,-1.489 -8.4,-3.047c-2.426,-1.401 -4.54,-3.132 -6.341,-5.195c-1.802,-2.062 -3.178,-4.336 -4.129,-6.822c-2.628,0.42 -5.277,0.369 -7.949,-0.151c-2.672,-0.52 -5.221,-1.481 -7.647,-2.881c-2.699,-1.559 -4.979,-3.476 -6.839,-5.751c-1.86,-2.276 -3.223,-4.713 -4.089,-7.311c-0.865,-2.597 -1.197,-5.246 -0.993,-7.944c0.203,-2.698 0.995,-5.244 2.378,-7.638l23.855,-41.318l13.01,7.511l-23.855,41.318c-0.466,0.807 -0.727,1.661 -0.782,2.562c-0.055,0.901 0.062,1.784 0.351,2.65c0.288,0.866 0.741,1.675 1.359,2.426c0.618,0.751 1.381,1.389 2.291,1.914c0.91,0.526 1.845,0.868 2.804,1.027c0.959,0.16 1.886,0.148 2.78,-0.035c0.894,-0.184 1.71,-0.529 2.448,-1.035c0.737,-0.507 1.339,-1.164 1.805,-1.971l23.855,-41.318l13.055,7.538l-23.855,41.318c-0.466,0.807 -0.734,1.656 -0.804,2.548c-0.07,0.892 0.039,1.771 0.328,2.637c0.288,0.866 0.741,1.675 1.359,2.426c0.617,0.751 1.381,1.389 2.291,1.914c0.91,0.526 1.844,0.868 2.804,1.027c0.959,0.16 1.886,0.148 2.78,-0.035c0.894,-0.183 1.71,-0.528 2.447,-1.035c0.738,-0.507 1.34,-1.164 1.805,-1.971l23.855,-41.318l0.018,0.01l23.855,-41.318c1.383,-2.394 3.191,-4.353 5.426,-5.879c2.235,-1.525 4.694,-2.562 7.377,-3.111c2.683,-0.55 5.474,-0.588 8.375,-0.114c2.901,0.473 5.701,1.489 8.4,3.047c2.427,1.401 4.54,3.132 6.342,5.195c1.802,2.062 3.178,4.336 4.128,6.822c2.628,-0.42 5.278,-0.369 7.95,0.151c2.671,0.52 5.22,1.481 7.646,2.881c2.699,1.559 4.979,3.476 6.839,5.751c1.861,2.276 3.224,4.713 4.089,7.311c0.866,2.598 1.197,5.246 0.994,7.944c-0.203,2.698 -0.996,5.244 -2.378,7.638l-23.855,41.318l-13.01,-7.511l23.855,-41.318c0.466,-0.807 0.726,-1.661 0.781,-2.562c0.055,-0.901 -0.062,-1.784 -0.35,-2.65c-0.289,-0.866 -0.742,-1.675 -1.359,-2.426c-0.618,-0.751 -1.382,-1.389 -2.292,-1.914c-0.909,-0.526 -1.844,-0.868 -2.803,-1.027c-0.96,-0.16 -1.886,-0.148 -2.781,0.035c-0.894,0.184 -1.71,0.529 -2.447,1.035c-0.737,0.507 -1.339,1.164 -1.805,1.971l-23.855,41.318l-13.056,-7.538l23.855,-41.318c0.466,-0.807 0.734,-1.656 0.804,-2.548c0.071,-0.892 -0.039,-1.771 -0.327,-2.637c-0.289,-0.866 -0.742,-1.675 -1.359,-2.426c-0.618,-0.751 -1.382,-1.389 -2.292,-1.914c-0.909,-0.526 -1.844,-0.868 -2.803,-1.027c-0.96,-0.16 -1.886,-0.148 -2.781,0.035c-0.894,0.183 -1.71,0.528 -2.447,1.035c-0.737,0.507 -1.339,1.164 -1.805,1.971l-23.855,41.318" style="fill:#ea86ea;"/><path d="M201.627,205.938l-23.855,41.318c-1.382,2.394 -3.191,4.354 -5.426,5.879c-2.235,1.525 -4.694,2.562 -7.376,3.112c-2.683,0.549 -5.475,0.587 -8.376,0.114c-2.901,-0.474 -5.701,-1.49 -8.4,-3.048c-2.426,-1.401 -4.54,-3.132 -6.341,-5.194c-1.802,-2.063 -3.178,-4.337 -4.129,-6.822c-2.628,0.419 -5.277,0.369 -7.949,-0.151c-2.672,-0.521 -5.221,-1.481 -7.647,-2.882c-2.699,-1.558 -4.979,-3.475 -6.839,-5.751c-1.86,-2.276 -3.223,-4.712 -4.089,-7.31c-0.865,-2.598 -1.197,-5.246 -0.993,-7.944c0.203,-2.699 0.996,-5.245 2.378,-7.639l23.855,-41.318l13.01,7.511l-23.855,41.319c-0.466,0.807 -0.726,1.66 -0.781,2.561c-0.055,0.901 0.061,1.784 0.35,2.65c0.288,0.866 0.741,1.675 1.359,2.426c0.618,0.751 1.381,1.389 2.291,1.915c0.91,0.525 1.845,0.867 2.804,1.027c0.959,0.159 1.886,0.147 2.78,-0.036c0.895,-0.183 1.71,-0.528 2.448,-1.035c0.737,-0.507 1.339,-1.164 1.805,-1.971l23.855,-41.318l13.055,7.538l-23.855,41.318c-0.466,0.807 -0.734,1.657 -0.804,2.549c-0.07,0.892 0.039,1.77 0.328,2.636c0.288,0.866 0.741,1.675 1.359,2.426c0.618,0.751 1.381,1.389 2.291,1.915c0.91,0.525 1.845,0.867 2.804,1.027c0.959,0.159 1.886,0.147 2.78,-0.036c0.894,-0.183 1.71,-0.528 2.448,-1.035c0.737,-0.507 1.339,-1.164 1.805,-1.971l23.855,-41.318l0.017,0.011l23.855,-41.319c1.383,-2.394 3.191,-4.353 5.426,-5.878c2.236,-1.525 4.694,-2.563 7.377,-3.112c2.683,-0.549 5.475,-0.587 8.375,-0.114c2.901,0.473 5.701,1.489 8.401,3.048c2.426,1.4 4.539,3.132 6.341,5.194c1.802,2.062 3.178,4.336 4.128,6.822c2.628,-0.42 5.278,-0.369 7.95,0.151c2.671,0.52 5.22,1.481 7.646,2.882c2.699,1.558 4.979,3.475 6.84,5.751c1.86,2.275 3.223,4.712 4.089,7.31c0.865,2.598 1.196,5.246 0.993,7.944c-0.203,2.698 -0.996,5.244 -2.378,7.638l-23.855,41.319l-13.01,-7.512l23.855,-41.318c0.466,-0.807 0.726,-1.661 0.781,-2.562c0.055,-0.9 -0.062,-1.784 -0.35,-2.65c-0.289,-0.866 -0.742,-1.674 -1.359,-2.425c-0.618,-0.751 -1.382,-1.39 -2.292,-1.915c-0.909,-0.525 -1.844,-0.868 -2.803,-1.027c-0.96,-0.159 -1.886,-0.147 -2.781,0.036c-0.894,0.183 -1.71,0.528 -2.447,1.035c-0.737,0.506 -1.339,1.163 -1.805,1.97l-23.855,41.318l-13.056,-7.537l23.855,-41.318c0.466,-0.807 0.734,-1.657 0.805,-2.549c0.07,-0.892 -0.039,-1.771 -0.328,-2.637c-0.288,-0.866 -0.742,-1.674 -1.359,-2.425c-0.618,-0.752 -1.382,-1.39 -2.291,-1.915c-0.91,-0.525 -1.845,-0.868 -2.804,-1.027c-0.959,-0.159 -1.886,-0.147 -2.78,0.036c-0.895,0.183 -1.71,0.528 -2.448,1.034c-0.737,0.507 -1.339,1.164 -1.805,1.971l-23.855,41.318" style="fill:#ea86ea;"/><path d="M50.21,107.498l-23.855,41.319c-1.383,2.394 -3.191,4.353 -5.426,5.878c-2.235,1.525 -4.694,2.563 -7.377,3.112c-2.683,0.549 -5.474,0.587 -8.375,0.114c-2.901,-0.473 -5.701,-1.489 -8.4,-3.047c-2.427,-1.401 -4.54,-3.133 -6.342,-5.195c-1.802,-2.062 -3.178,-4.336 -4.128,-6.822c-2.628,0.42 -5.278,0.369 -7.95,-0.151c-2.671,-0.52 -5.22,-1.481 -7.646,-2.882c-2.699,-1.558 -4.979,-3.475 -6.84,-5.751c-1.86,-2.275 -3.223,-4.712 -4.088,-7.31c-0.866,-2.598 -1.197,-5.246 -0.994,-7.944c0.203,-2.698 0.996,-5.244 2.378,-7.638l23.855,-41.319l13.01,7.512l-23.855,41.318c-0.466,0.807 -0.726,1.661 -0.781,2.562c-0.055,0.9 0.062,1.784 0.35,2.65c0.289,0.866 0.742,1.674 1.359,2.425c0.618,0.752 1.382,1.39 2.292,1.915c0.909,0.525 1.844,0.868 2.803,1.027c0.96,0.159 1.886,0.147 2.781,-0.036c0.894,-0.183 1.71,-0.528 2.447,-1.035c0.737,-0.506 1.339,-1.163 1.805,-1.97l23.855,-41.318l13.056,7.537l-23.855,41.318c-0.466,0.807 -0.734,1.657 -0.804,2.549c-0.071,0.892 0.038,1.771 0.327,2.637c0.289,0.866 0.742,1.674 1.359,2.426c0.618,0.751 1.382,1.389 2.291,1.914c0.91,0.525 1.845,0.868 2.804,1.027c0.96,0.159 1.886,0.148 2.781,-0.036c0.894,-0.183 1.71,-0.528 2.447,-1.034c0.737,-0.507 1.339,-1.164 1.805,-1.971l23.855,-41.318l0.018,0.01l23.855,-41.318c1.382,-2.394 3.191,-4.354 5.426,-5.879c2.235,-1.525 4.694,-2.562 7.376,-3.112c2.683,-0.549 5.475,-0.587 8.376,-0.114c2.901,0.474 5.701,1.49 8.4,3.048c2.426,1.401 4.54,3.132 6.341,5.194c1.802,2.063 3.178,4.337 4.129,6.822c2.628,-0.419 5.277,-0.369 7.949,0.152c2.672,0.52 5.221,1.48 7.647,2.881c2.699,1.558 4.979,3.475 6.839,5.751c1.86,2.276 3.223,4.712 4.089,7.31c0.865,2.598 1.197,5.246 0.993,7.944c-0.203,2.699 -0.995,5.245 -2.378,7.639l-23.855,41.318l-13.01,-7.511l23.855,-41.319c0.466,-0.807 0.726,-1.66 0.782,-2.561c0.055,-0.901 -0.062,-1.784 -0.351,-2.65c-0.288,-0.866 -0.741,-1.675 -1.359,-2.426c-0.618,-0.751 -1.381,-1.389 -2.291,-1.915c-0.91,-0.525 -1.845,-0.867 -2.804,-1.027c-0.959,-0.159 -1.886,-0.147 -2.78,0.036c-0.894,0.183 -1.71,0.528 -2.448,1.035c-0.737,0.507 -1.339,1.164 -1.805,1.971l-23.855,41.318l-13.055,-7.538l23.855,-41.318c0.466,-0.807 0.734,-1.656 0.804,-2.548c0.07,-0.892 -0.039,-1.771 -0.328,-2.637c-0.288,-0.866 -0.741,-1.675 -1.359,-2.426c-0.618,-0.751 -1.381,-1.389 -2.291,-1.915c-0.91,-0.525 -1.844,-0.867 -2.804,-1.027c-0.959,-0.159 -1.886,-0.147 -2.78,0.036c-0.894,0.183 -1.71,0.528 -2.448,1.035c-0.737,0.507 -1.339,1.164 -1.804,1.971l-23.856,41.318" style="fill:#ea86ea;"/></g></g></g></svg>