<?xml version="1.0" encoding="UTF-8" standalone="no"?><!DOCTYPE svg PUBLIC "-//W3C//DTD SVG 1.1//EN" "http://www.w3.org/Graphics/SVG/1.1/DTD/svg11.dtd"><svg width="100%" height="100%" viewBox="0 0 1260 233" version="1.1" xmlns="http://www.w3.org/2000/svg" xmlns:xlink="http://www.w3.org/1999/xlink" xml:space="preserve" xmlns:serif="http://www.serif.com/" style="fill-rule:evenodd;clip-rule:evenodd;stroke-linejoin:round;stroke-miterlimit:2;"><rect id="company-logo-blue-purple-no-bg" x="0" y="0" width="1260" height="232.8" style="fill:none;"/><path d="M123.341,123.341l44.182,-44.182c0.863,-0.863 1.855,-1.482 2.976,-1.857c1.121,-0.375 2.278,-0.526 3.471,-0.455c1.193,0.072 2.37,0.371 3.529,0.897c1.16,0.527 2.226,1.277 3.199,2.25c0.973,0.973 1.722,2.039 2.249,3.199c0.527,1.159 0.826,2.336 0.897,3.529c0.072,1.193 -0.088,2.342 -0.479,3.447c-0.391,1.104 -1.018,2.088 -1.881,2.951l-44.182,44.182l13.96,13.96l44.182,-44.182c0.863,-0.863 1.847,-1.49 2.952,-1.881c1.104,-0.391 2.253,-0.551 3.446,-0.479c1.194,0.071 2.37,0.37 3.53,0.897c1.159,0.527 2.225,1.277 3.198,2.249c0.973,0.973 1.723,2.04 2.25,3.199c0.526,1.16 0.826,2.336 0.897,3.529c0.071,1.194 -0.088,2.343 -0.48,3.447c-0.391,1.105 -1.018,2.088 -1.881,2.951l-44.182,44.182l13.961,13.961l44.182,-44.182c2.56,-2.56 4.426,-5.512 5.597,-8.857c1.172,-3.344 1.651,-6.806 1.436,-10.386c-0.214,-3.58 -1.112,-7.124 -2.694,-10.633c-1.582,-3.51 -3.817,-6.707 -6.703,-9.594c-2.594,-2.594 -5.501,-4.681 -8.72,-6.261c-3.22,-1.58 -6.563,-2.55 -10.03,-2.91c-0.36,-3.466 -1.321,-6.801 -2.885,-10.005c-1.564,-3.203 -3.643,-6.102 -6.237,-8.696c-2.886,-2.886 -6.084,-5.12 -9.593,-6.702c-3.51,-1.583 -7.054,-2.481 -10.634,-2.695c-3.58,-0.214 -7.042,0.264 -10.386,1.436c-3.345,1.171 -6.297,3.037 -8.857,5.597l-44.182,44.182l0.03,0.03l-44.182,44.182c-0.863,0.863 -1.855,1.482 -2.976,1.857c-1.121,0.375 -2.278,0.526 -3.471,0.455c-1.193,-0.072 -2.37,-0.371 -3.529,-0.897c-1.16,-0.527 -2.226,-1.277 -3.199,-2.25c-0.973,-0.973 -1.722,-2.039 -2.249,-3.199c-0.527,-1.159 -0.826,-2.336 -0.897,-3.529c-0.072,-1.193 0.088,-2.342 0.479,-3.447c0.391,-1.104 1.018,-2.088 1.881,-2.951l44.182,-44.182l-13.96,-13.96l-44.182,44.182c-0.863,0.863 -1.847,1.49 -2.952,1.881c-1.104,0.391 -2.253,0.551 -3.446,0.479c-1.194,-0.071 -2.37,-0.37 -3.53,-0.897c-1.159,-0.527 -2.225,-1.277 -3.198,-2.249c-0.973,-0.973 -1.723,-2.04 -2.25,-3.199c-0.526,-1.16 -0.826,-2.336 -0.897,-3.529c-0.071,-1.194 0.088,-2.343 0.48,-3.447c0.391,-1.105 1.018,-2.088 1.881,-2.951l44.182,-44.182l-13.961,-13.961l-44.182,44.182c-2.56,2.56 -4.426,5.512 -5.597,8.857c-1.172,3.344 -1.651,6.806 -1.436,10.386c0.214,3.58 1.112,7.124 2.694,10.633c1.582,3.51 3.817,6.707 6.703,9.594c2.594,2.594 5.501,4.681 8.72,6.261c3.22,1.58 6.563,2.55 10.03,2.91c0.36,3.466 1.321,6.801 2.885,10.005c1.564,3.203 3.643,6.102 6.237,8.696c2.886,2.886 6.084,5.12 9.593,6.702c3.51,1.583 7.054,2.481 10.634,2.695c3.58,0.214 7.042,-0.264 10.386,-1.436c3.345,-1.171 6.297,-3.037 8.857,-5.597l44.182,-44.182" style="fill:#ea86ea;"/><path d="M123.371,123.371l44.182,-44.182c2.56,-2.56 4.426,-5.512 5.597,-8.857c1.172,-3.344 1.65,-6.806 1.436,-10.386c-0.214,-3.58 -1.112,-7.124 -2.695,-10.634c-1.582,-3.509 -3.816,-6.707 -6.702,-9.593c-2.594,-2.594 -5.501,-4.681 -8.721,-6.261c-3.219,-1.58 -6.562,-2.55 -10.029,-2.91c-0.36,-3.467 -1.322,-6.802 -2.885,-10.005c-1.564,-3.203 -3.643,-6.102 -6.237,-8.696c-2.887,-2.886 -6.084,-5.121 -9.594,-6.703c-3.509,-1.582 -7.053,-2.48 -10.633,-2.694c-3.58,-0.215 -7.042,0.264 -10.386,1.436c-3.345,1.171 -6.297,3.037 -8.857,5.597l-44.182,44.182l13.912,13.912l44.182,-44.182c0.863,-0.863 1.855,-1.482 2.976,-1.857c1.12,-0.375 2.277,-0.526 3.471,-0.455c1.193,0.071 2.369,0.371 3.529,0.897c1.159,0.527 2.226,1.277 3.199,2.25c0.972,0.973 1.722,2.039 2.249,3.198c0.527,1.16 0.826,2.336 0.897,3.53c0.072,1.193 -0.088,2.342 -0.479,3.446c-0.391,1.105 -1.018,2.089 -1.881,2.952l-44.182,44.182l13.96,13.96l44.182,-44.182c0.863,-0.863 1.847,-1.49 2.951,-1.881c1.105,-0.391 2.254,-0.551 3.447,-0.479c1.193,0.071 2.37,0.37 3.529,0.897c1.16,0.527 2.226,1.276 3.199,2.249c0.973,0.973 1.723,2.039 2.25,3.199c0.526,1.159 0.825,2.336 0.897,3.529c0.071,1.193 -0.089,2.342 -0.48,3.447c-0.391,1.105 -1.018,2.088 -1.881,2.951l-44.182,44.182l0.019,0.019l-44.182,44.182c-2.56,2.56 -4.426,5.512 -5.597,8.857c-1.172,3.344 -1.65,6.806 -1.436,10.386c0.214,3.58 1.112,7.124 2.695,10.634c1.582,3.509 3.816,6.707 6.702,9.593c2.594,2.594 5.501,4.681 8.721,6.261c3.219,1.58 6.562,2.55 10.029,2.91c0.36,3.467 1.322,6.802 2.885,10.005c1.564,3.203 3.643,6.102 6.237,8.696c2.887,2.886 6.084,5.121 9.594,6.703c3.509,1.582 7.053,2.48 10.633,2.694c3.58,0.215 7.042,-0.264 10.386,-1.436c3.345,-1.171 6.297,-3.037 8.857,-5.597l44.182,-44.182l-13.912,-13.912l-44.182,44.182c-0.863,0.863 -1.855,1.482 -2.976,1.857c-1.12,0.375 -2.277,0.526 -3.471,0.455c-1.193,-0.071 -2.369,-0.371 -3.529,-0.897c-1.159,-0.527 -2.226,-1.277 -3.199,-2.25c-0.972,-0.973 -1.722,-2.039 -2.249,-3.198c-0.527,-1.16 -0.826,-2.336 -0.897,-3.53c-0.072,-1.193 0.088,-2.342 0.479,-3.446c0.391,-1.105 1.018,-2.089 1.881,-2.952l44.182,-44.182l-13.96,-13.96l-44.182,44.182c-0.863,0.863 -1.847,1.49 -2.951,1.881c-1.105,0.391 -2.254,0.551 -3.447,0.479c-1.193,-0.071 -2.37,-0.37 -3.529,-0.897c-1.16,-0.527 -2.226,-1.276 -3.199,-2.249c-0.973,-0.973 -1.723,-2.039 -2.25,-3.199c-0.526,-1.159 -0.825,-2.336 -0.897,-3.529c-0.071,-1.193 0.089,-2.342 0.48,-3.447c0.391,-1.105 1.018,-2.088 1.881,-2.951l44.182,-44.182" style="fill:#b8ea86;"/><path d="M401.577,129.055l-21.71,0l0,-77.73c0,-1.518 -0.291,-2.935 -0.873,-4.251c-0.582,-1.316 -1.366,-2.467 -2.353,-3.454c-0.987,-0.986 -2.138,-1.758 -3.454,-2.315c-1.316,-0.557 -2.733,-0.835 -4.251,-0.835c-1.518,0 -2.935,0.278 -4.251,0.835c-1.316,0.557 -2.467,1.329 -3.454,2.315c-0.986,0.987 -1.758,2.138 -2.315,3.454c-0.556,1.316 -0.835,2.733 -0.835,4.251l0,77.73l-21.786,0l0,-77.73c0,-1.518 -0.278,-2.935 -0.835,-4.251c-0.556,-1.316 -1.328,-2.467 -2.315,-3.454c-0.987,-0.986 -2.138,-1.758 -3.454,-2.315c-1.315,-0.557 -2.732,-0.835 -4.25,-0.835c-1.519,0 -2.936,0.278 -4.251,0.835c-1.316,0.557 -2.467,1.329 -3.454,2.315c-0.987,0.987 -1.759,2.138 -2.315,3.454c-0.557,1.316 -0.835,2.733 -0.835,4.251l0,77.73l-21.786,0l0,-77.73c0,-4.504 0.848,-8.742 2.543,-12.715c1.695,-3.972 4.023,-7.439 6.983,-10.399c2.961,-2.961 6.427,-5.288 10.4,-6.984c3.972,-1.695 8.211,-2.543 12.715,-2.543c4.048,0 7.945,0.722 11.689,2.164c3.745,1.442 7.111,3.53 10.096,6.262c2.986,-2.732 6.339,-4.82 10.058,-6.262c3.72,-1.442 7.604,-2.164 11.652,-2.164c4.504,0 8.742,0.848 12.715,2.543c3.972,1.696 7.439,4.023 10.399,6.984c2.961,2.96 5.288,6.427 6.984,10.399c1.695,3.973 2.543,8.211 2.543,12.715l0,77.73Z" style="fill:#b8ea86;fill-rule:nonzero;"/><path d="M454.898,109.167c0.809,0.253 1.619,0.418 2.429,0.494c0.809,0.075 1.619,0.113 2.429,0.113c2.024,0 3.972,-0.278 5.845,-0.835c1.872,-0.556 3.631,-1.353 5.275,-2.391c1.645,-1.037 3.113,-2.302 4.403,-3.795c1.291,-1.493 2.341,-3.15 3.15,-4.972l15.182,15.257c-1.923,2.733 -4.137,5.188 -6.642,7.364c-2.505,2.176 -5.212,4.023 -8.122,5.541c-2.91,1.518 -5.972,2.669 -9.185,3.454c-3.214,0.784 -6.516,1.176 -9.906,1.176c-5.719,0 -11.095,-1.062 -16.131,-3.188c-5.035,-2.125 -9.438,-5.086 -13.208,-8.881c-3.77,-3.796 -6.743,-8.312 -8.919,-13.55c-2.176,-5.237 -3.264,-10.994 -3.264,-17.269c0,-6.427 1.088,-12.297 3.264,-17.611c2.176,-5.313 5.149,-9.842 8.919,-13.587c3.77,-3.745 8.173,-6.655 13.208,-8.73c5.036,-2.075 10.412,-3.112 16.131,-3.112c3.39,0 6.705,0.405 9.944,1.215c3.239,0.809 6.313,1.973 9.223,3.491c2.91,1.519 5.63,3.378 8.16,5.58c2.53,2.201 4.757,4.668 6.68,7.401l-38.865,46.835Zm10.627,-42.736c-0.962,-0.354 -1.91,-0.582 -2.847,-0.683c-0.936,-0.102 -1.91,-0.152 -2.922,-0.152c-2.834,0 -5.504,0.518 -8.008,1.556c-2.505,1.037 -4.682,2.518 -6.529,4.441c-1.847,1.923 -3.302,4.238 -4.364,6.945c-1.063,2.708 -1.594,5.757 -1.594,9.147c0,0.759 0.038,1.619 0.113,2.581c0.076,0.961 0.203,1.936 0.38,2.922c0.177,0.987 0.392,1.936 0.645,2.847c0.253,0.911 0.582,1.721 0.987,2.429l24.139,-32.033Z" style="fill:#b8ea86;fill-rule:nonzero;"/><path d="M549.589,129.055c-5.01,0 -9.716,-0.949 -14.119,-2.846c-4.403,-1.898 -8.262,-4.504 -11.576,-7.819c-3.315,-3.315 -5.921,-7.173 -7.819,-11.576c-1.897,-4.403 -2.846,-9.109 -2.846,-14.119l0,-24.139l-10.096,0l0,-20.647l10.096,0l0,-32.489l20.647,0l0,32.489l31.426,0l0,20.647l-31.426,0l0,24.139c0,2.176 0.405,4.213 1.214,6.111c0.81,1.897 1.923,3.555 3.34,4.972c1.417,1.417 3.087,2.543 5.01,3.378c1.923,0.835 3.973,1.252 6.149,1.252l15.713,0l0,20.647l-15.713,0Z" style="fill:#b8ea86;fill-rule:nonzero;"/><path d="M660.297,129.055l-5.01,0l-8.047,-11.158c-1.973,1.771 -4.061,3.428 -6.262,4.972c-2.201,1.543 -4.517,2.884 -6.946,4.023c-2.429,1.138 -4.921,2.037 -7.477,2.695c-2.555,0.657 -5.149,0.986 -7.78,0.986c-5.719,0 -11.096,-0.961 -16.131,-2.884c-5.035,-1.923 -9.438,-4.719 -13.208,-8.388c-3.77,-3.669 -6.743,-8.16 -8.919,-13.474c-2.176,-5.313 -3.264,-11.361 -3.264,-18.142c0,-6.326 1.088,-12.133 3.264,-17.421c2.176,-5.288 5.149,-9.83 8.919,-13.625c3.77,-3.796 8.173,-6.744 13.208,-8.844c5.035,-2.1 10.412,-3.15 16.131,-3.15c2.631,0 5.237,0.329 7.818,0.987c2.581,0.658 5.086,1.569 7.515,2.733c2.429,1.164 4.744,2.53 6.946,4.099c2.201,1.568 4.263,3.264 6.186,5.085l8.047,-9.64l5.01,0l0,81.146Zm-20.875,-41.37c0,-2.834 -0.544,-5.579 -1.632,-8.236c-1.088,-2.657 -2.568,-5.01 -4.441,-7.059c-1.872,-2.05 -4.061,-3.695 -6.566,-4.934c-2.505,-1.24 -5.174,-1.86 -8.008,-1.86c-2.834,0 -5.504,0.481 -8.009,1.442c-2.505,0.962 -4.681,2.379 -6.528,4.251c-1.847,1.872 -3.302,4.188 -4.364,6.946c-1.063,2.758 -1.595,5.908 -1.595,9.45c0,3.542 0.532,6.693 1.595,9.451c1.062,2.758 2.517,5.073 4.364,6.945c1.847,1.873 4.023,3.29 6.528,4.251c2.505,0.962 5.175,1.442 8.009,1.442c2.834,0 5.503,-0.619 8.008,-1.859c2.505,-1.24 4.694,-2.885 6.566,-4.934c1.873,-2.05 3.353,-4.403 4.441,-7.06c1.088,-2.657 1.632,-5.402 1.632,-8.236Z" style="fill:#b8ea86;fill-rule:nonzero;"/><path d="M784.136,129.055l-20.647,0l0,-51.618c0,-1.416 -0.265,-2.758 -0.797,-4.023c-0.531,-1.265 -1.277,-2.378 -2.239,-3.34c-0.961,-0.961 -2.075,-1.708 -3.34,-2.239c-1.265,-0.531 -2.606,-0.797 -4.023,-0.797c-1.417,0 -2.745,0.266 -3.985,0.797c-1.24,0.531 -2.328,1.278 -3.264,2.239c-0.936,0.962 -1.67,2.075 -2.202,3.34c-0.531,1.265 -0.797,2.607 -0.797,4.023l0,51.618l-20.723,0l0,-51.618c0,-1.416 -0.265,-2.758 -0.797,-4.023c-0.531,-1.265 -1.277,-2.378 -2.239,-3.34c-0.961,-0.961 -2.075,-1.708 -3.34,-2.239c-1.265,-0.531 -2.606,-0.797 -4.023,-0.797c-1.417,0 -2.745,0.266 -3.985,0.797c-1.24,0.531 -2.328,1.278 -3.264,2.239c-0.937,0.962 -1.67,2.075 -2.202,3.34c-0.531,1.265 -0.797,2.607 -0.797,4.023l0,51.618l-20.723,0l0,-81.298l5.01,0l5.617,6.225c2.885,-2.429 6.06,-4.314 9.527,-5.655c3.466,-1.341 7.072,-2.012 10.817,-2.012c3.795,0 7.502,0.709 11.12,2.125c3.619,1.417 6.794,3.872 9.527,7.364c1.265,-1.721 2.707,-3.189 4.327,-4.403c1.619,-1.215 3.327,-2.201 5.124,-2.961c1.796,-0.759 3.656,-1.303 5.579,-1.632c1.923,-0.328 3.821,-0.493 5.693,-0.493c4.301,0 8.337,0.81 12.107,2.429c3.77,1.62 7.06,3.834 9.868,6.642c2.809,2.809 5.023,6.111 6.642,9.906c1.62,3.796 2.429,7.844 2.429,12.145l0,51.618Z" style="fill:#b8ea86;fill-rule:nonzero;"/><path d="M882.471,87.685c0,6.073 -1.088,11.728 -3.264,16.966c-2.176,5.237 -5.136,9.766 -8.881,13.587c-3.745,3.821 -8.135,6.832 -13.17,9.033c-5.036,2.202 -10.438,3.302 -16.207,3.302c-5.718,0 -11.095,-1.1 -16.13,-3.302c-5.035,-2.201 -9.438,-5.212 -13.208,-9.033c-3.77,-3.821 -6.743,-8.35 -8.919,-13.587c-2.177,-5.238 -3.265,-10.893 -3.265,-16.966c0,-6.174 1.088,-11.892 3.265,-17.155c2.176,-5.263 5.149,-9.805 8.919,-13.626c3.77,-3.82 8.173,-6.819 13.208,-8.995c5.035,-2.176 10.412,-3.264 16.13,-3.264c5.769,0 11.171,1.025 16.207,3.074c5.035,2.05 9.425,4.96 13.17,8.73c3.745,3.77 6.705,8.299 8.881,13.587c2.176,5.289 3.264,11.172 3.264,17.649Zm-20.875,0c0,-3.34 -0.544,-6.364 -1.632,-9.071c-1.088,-2.707 -2.568,-5.035 -4.44,-6.984c-1.873,-1.948 -4.061,-3.441 -6.566,-4.478c-2.505,-1.038 -5.175,-1.556 -8.009,-1.556c-2.834,0 -5.503,0.518 -8.008,1.556c-2.505,1.037 -4.681,2.53 -6.528,4.478c-1.847,1.949 -3.302,4.277 -4.365,6.984c-1.063,2.707 -1.594,5.731 -1.594,9.071c0,3.138 0.531,6.047 1.594,8.73c1.063,2.682 2.518,5.01 4.365,6.983c1.847,1.974 4.023,3.53 6.528,4.668c2.505,1.139 5.174,1.708 8.008,1.708c2.834,0 5.504,-0.531 8.009,-1.594c2.505,-1.062 4.693,-2.555 6.566,-4.478c1.872,-1.923 3.352,-4.251 4.44,-6.984c1.088,-2.732 1.632,-5.744 1.632,-9.033Z" style="fill:#b8ea86;fill-rule:nonzero;"/><path d="M977.162,129.055l-5.01,0l-8.046,-11.158c-1.974,1.771 -4.061,3.428 -6.262,4.972c-2.202,1.543 -4.517,2.884 -6.946,4.023c-2.429,1.138 -4.921,2.037 -7.477,2.695c-2.556,0.657 -5.149,0.986 -7.781,0.986c-5.718,0 -11.095,-1.075 -16.13,-3.226c-5.035,-2.151 -9.438,-5.136 -13.208,-8.957c-3.77,-3.821 -6.743,-8.35 -8.919,-13.588c-2.176,-5.237 -3.264,-10.943 -3.264,-17.117c0,-6.123 1.088,-11.816 3.264,-17.079c2.176,-5.263 5.149,-9.818 8.919,-13.664c3.77,-3.846 8.173,-6.857 13.208,-9.033c5.035,-2.176 10.412,-3.264 16.13,-3.264c1.822,0 3.707,0.152 5.656,0.456c1.948,0.303 3.846,0.797 5.693,1.48c1.847,0.683 3.58,1.581 5.199,2.694c1.62,1.114 2.986,2.48 4.099,4.1l0,-37.955l20.875,0l0,113.635Zm-20.875,-41.37c0,-2.834 -0.544,-5.579 -1.632,-8.236c-1.088,-2.657 -2.568,-5.01 -4.44,-7.059c-1.873,-2.05 -4.061,-3.695 -6.566,-4.934c-2.505,-1.24 -5.175,-1.86 -8.009,-1.86c-2.834,0 -5.503,0.506 -8.008,1.518c-2.505,1.012 -4.681,2.467 -6.528,4.365c-1.847,1.897 -3.302,4.213 -4.365,6.945c-1.062,2.733 -1.594,5.82 -1.594,9.261c0,2.986 0.532,5.82 1.594,8.502c1.063,2.682 2.518,5.035 4.365,7.059c1.847,2.025 4.023,3.619 6.528,4.783c2.505,1.163 5.174,1.745 8.008,1.745c2.834,0 5.504,-0.619 8.009,-1.859c2.505,-1.24 4.693,-2.885 6.566,-4.934c1.872,-2.05 3.352,-4.403 4.44,-7.06c1.088,-2.657 1.632,-5.402 1.632,-8.236Z" style="fill:#b8ea86;fill-rule:nonzero;"/><path d="M1029.95,109.167c0.81,0.253 1.619,0.418 2.429,0.494c0.81,0.075 1.619,0.113 2.429,0.113c2.024,0 3.973,-0.278 5.845,-0.835c1.872,-0.556 3.631,-1.353 5.276,-2.391c1.644,-1.037 3.112,-2.302 4.402,-3.795c1.291,-1.493 2.341,-3.15 3.151,-4.972l15.181,15.257c-1.923,2.733 -4.137,5.188 -6.642,7.364c-2.505,2.176 -5.212,4.023 -8.122,5.541c-2.91,1.518 -5.971,2.669 -9.185,3.454c-3.213,0.784 -6.515,1.176 -9.906,1.176c-5.718,0 -11.095,-1.062 -16.13,-3.188c-5.036,-2.125 -9.438,-5.086 -13.208,-8.881c-3.771,-3.796 -6.744,-8.312 -8.92,-13.55c-2.176,-5.237 -3.264,-10.994 -3.264,-17.269c0,-6.427 1.088,-12.297 3.264,-17.611c2.176,-5.313 5.149,-9.842 8.92,-13.587c3.77,-3.745 8.172,-6.655 13.208,-8.73c5.035,-2.075 10.412,-3.112 16.13,-3.112c3.391,0 6.705,0.405 9.944,1.215c3.239,0.809 6.313,1.973 9.223,3.491c2.91,1.519 5.63,3.378 8.16,5.58c2.53,2.201 4.757,4.668 6.68,7.401l-38.865,46.835Zm10.627,-42.736c-0.961,-0.354 -1.91,-0.582 -2.846,-0.683c-0.937,-0.102 -1.911,-0.152 -2.923,-0.152c-2.834,0 -5.503,0.518 -8.008,1.556c-2.505,1.037 -4.681,2.518 -6.528,4.441c-1.847,1.923 -3.302,4.238 -4.365,6.945c-1.063,2.708 -1.594,5.757 -1.594,9.147c0,0.759 0.038,1.619 0.114,2.581c0.076,0.961 0.202,1.936 0.379,2.922c0.177,0.987 0.392,1.936 0.645,2.847c0.254,0.911 0.582,1.721 0.987,2.429l24.139,-32.033Z" style="fill:#b8ea86;fill-rule:nonzero;"/><path d="M1104.6,129.055l-20.723,0l0,-81.298l5.01,0l6.832,9.641c3.34,-3.037 7.135,-5.377 11.386,-7.022c4.251,-1.645 8.654,-2.467 13.208,-2.467l18.294,0l0,20.647l-18.294,0c-2.176,0 -4.225,0.405 -6.148,1.215c-1.923,0.809 -3.593,1.923 -5.01,3.34c-1.417,1.417 -2.531,3.087 -3.34,5.01c-0.81,1.923 -1.215,3.972 -1.215,6.148l0,44.786Z" style="fill:#b8ea86;fill-rule:nonzero;"/><path d="M1173.64,129.055l-20.723,0l0,-81.298l5.01,0l6.832,7.895c3.34,-3.037 7.123,-5.377 11.348,-7.022c4.226,-1.644 8.641,-2.467 13.246,-2.467c4.96,0 9.641,0.949 14.043,2.847c4.403,1.898 8.249,4.504 11.538,7.818c3.29,3.315 5.883,7.186 7.781,11.614c1.898,4.428 2.847,9.147 2.847,14.157l0,46.456l-20.723,0l0,-46.456c0,-2.125 -0.405,-4.137 -1.215,-6.034c-0.81,-1.898 -1.923,-3.556 -3.34,-4.972c-1.417,-1.417 -3.061,-2.531 -4.934,-3.34c-1.872,-0.81 -3.871,-1.215 -5.997,-1.215c-2.176,0 -4.225,0.405 -6.148,1.215c-1.923,0.809 -3.593,1.923 -5.01,3.34c-1.417,1.416 -2.53,3.074 -3.34,4.972c-0.81,1.897 -1.215,3.909 -1.215,6.034l0,46.456Z" style="fill:#b8ea86;fill-rule:nonzero;"/><g transform="matrix(0.313262,0,0,0.313262,246.817,-87.9054)"><g transform="matrix(225.314,0,0,225.314,524.908,971.124)"><path d="M0.626,-0.35c0,0.032 -0.004,0.063 -0.012,0.093c-0.009,0.03 -0.021,0.058 -0.036,0.083c-0.015,0.026 -0.033,0.05 -0.055,0.071c-0.021,0.022 -0.044,0.04 -0.07,0.055c-0.026,0.015 -0.054,0.027 -0.084,0.036c-0.03,0.008 -0.061,0.012 -0.093,0.012l-0.211,0l0,-0.7l0.211,0c0.032,0 0.063,0.004 0.093,0.012c0.03,0.009 0.058,0.02 0.084,0.036c0.026,0.015 0.049,0.033 0.07,0.055c0.022,0.021 0.04,0.045 0.055,0.07c0.015,0.026 0.027,0.054 0.036,0.084c0.008,0.03 0.012,0.061 0.012,0.093Zm-0.14,0c0,-0.029 -0.006,-0.056 -0.017,-0.082c-0.01,-0.025 -0.025,-0.047 -0.044,-0.066c-0.019,-0.019 -0.042,-0.034 -0.067,-0.045c-0.026,-0.012 -0.053,-0.017 -0.082,-0.017l-0.07,0l0,0.42l0.07,0c0.029,0 0.056,-0.006 0.082,-0.016c0.025,-0.011 0.048,-0.026 0.067,-0.045c0.019,-0.019 0.034,-0.042 0.044,-0.067c0.011,-0.026 0.017,-0.053 0.017,-0.082Z" style="fill:#b8ea86;fill-rule:nonzero;"/></g><g transform="matrix(225.314,0,0,225.314,739.815,971.124)"><path d="M0.545,0l-0.48,0l0,-0.7l0.48,0l0,0.14l-0.34,0l0,0.14l0.23,0l0,0.14l-0.23,0l0,0.14l0.34,0l0,0.14Z" style="fill:#b8ea86;fill-rule:nonzero;"/></g><g transform="matrix(225.314,0,0,225.314,935.908,971.124)"><path d="M0.024,-0.49c0,-0.029 0.005,-0.056 0.017,-0.082c0.011,-0.025 0.026,-0.047 0.045,-0.066c0.019,-0.019 0.041,-0.035 0.066,-0.046c0.026,-0.011 0.053,-0.016 0.082,-0.016l0.321,0l0,0.14l-0.321,0c-0.01,0 -0.019,0.002 -0.027,0.005c-0.009,0.004 -0.016,0.009 -0.023,0.015c-0.006,0.007 -0.011,0.014 -0.015,0.022c-0.003,0.009 -0.005,0.018 -0.005,0.028c0,0.01 0.002,0.019 0.005,0.027c0.004,0.009 0.009,0.016 0.015,0.023c0.007,0.006 0.014,0.011 0.023,0.015c0.008,0.003 0.017,0.005 0.027,0.005l0.14,0c0.029,0 0.056,0.006 0.082,0.016c0.025,0.011 0.048,0.026 0.067,0.045c0.019,0.019 0.034,0.042 0.045,0.067c0.011,0.026 0.016,0.053 0.016,0.082c0,0.029 -0.005,0.056 -0.016,0.082c-0.011,0.025 -0.026,0.047 -0.045,0.066c-0.019,0.019 -0.042,0.034 -0.067,0.045c-0.026,0.011 -0.053,0.017 -0.082,0.017l-0.311,0l0,-0.14l0.311,0c0.01,0 0.019,-0.002 0.027,-0.006c0.009,-0.003 0.016,-0.008 0.023,-0.014c0.006,-0.007 0.011,-0.014 0.014,-0.023c0.004,-0.008 0.006,-0.017 0.006,-0.027c0,-0.01 -0.002,-0.019 -0.006,-0.027c-0.003,-0.009 -0.008,-0.016 -0.014,-0.023c-0.007,-0.006 -0.014,-0.011 -0.023,-0.014c-0.008,-0.004 -0.017,-0.006 -0.027,-0.006l-0.14,0c-0.029,0 -0.056,-0.005 -0.082,-0.016c-0.025,-0.011 -0.047,-0.027 -0.066,-0.046c-0.019,-0.019 -0.034,-0.041 -0.045,-0.066c-0.012,-0.026 -0.017,-0.053 -0.017,-0.082Z" style="fill:#b8ea86;fill-rule:nonzero;"/></g><g transform="matrix(225.314,0,0,225.314,1141.13,971.124)"><rect x="0.065" y="-0.7" width="0.14" height="0.7" style="fill:#b8ea86;fill-rule:nonzero;"/></g><g transform="matrix(225.314,0,0,225.314,1269.57,971.124)"><path d="M0.622,-0.071c-0.032,0.028 -0.069,0.049 -0.109,0.064c-0.04,0.015 -0.082,0.022 -0.125,0.022c-0.033,0 -0.065,-0.004 -0.096,-0.013c-0.031,-0.008 -0.059,-0.021 -0.086,-0.036c-0.027,-0.016 -0.051,-0.035 -0.073,-0.057c-0.022,-0.022 -0.041,-0.046 -0.057,-0.073c-0.015,-0.027 -0.028,-0.056 -0.036,-0.087c-0.009,-0.031 -0.013,-0.063 -0.013,-0.096c0,-0.033 0.004,-0.065 0.013,-0.096c0.008,-0.03 0.021,-0.059 0.036,-0.086c0.016,-0.027 0.035,-0.051 0.057,-0.073c0.022,-0.022 0.046,-0.041 0.073,-0.057c0.027,-0.015 0.055,-0.027 0.086,-0.036c0.031,-0.009 0.063,-0.013 0.096,-0.013c0.043,0 0.085,0.007 0.125,0.022c0.04,0.015 0.077,0.036 0.109,0.064l-0.073,0.122c-0.021,-0.021 -0.046,-0.038 -0.073,-0.051c-0.028,-0.012 -0.057,-0.018 -0.088,-0.018c-0.03,0 -0.059,0.006 -0.086,0.018c-0.027,0.011 -0.05,0.027 -0.071,0.047c-0.02,0.02 -0.036,0.044 -0.047,0.071c-0.012,0.027 -0.018,0.055 -0.018,0.086c0,0.031 0.006,0.06 0.018,0.087c0.011,0.027 0.027,0.05 0.047,0.071c0.021,0.02 0.044,0.036 0.071,0.047c0.027,0.012 0.056,0.018 0.086,0.018c0.018,0 0.035,-0.002 0.051,-0.006c0.017,-0.005 0.033,-0.01 0.048,-0.018l0,-0.199l0.135,0l0,0.276Z" style="fill:#b8ea86;fill-rule:nonzero;"/></g><g transform="matrix(225.314,0,0,225.314,1487,971.124)"><path d="M0.625,0l-0.15,0l-0.27,-0.461l0,0.461l-0.14,0l0,-0.7l0.15,0l0.27,0.461l0,-0.461l0.14,0l0,0.7Z" style="fill:#b8ea86;fill-rule:nonzero;"/></g><g transform="matrix(225.314,0,0,225.314,1883.99,971.124)"><path d="M0.555,0l-0.49,0l0,-0.7l0.14,0l0,0.56l0.35,0l0,0.14Z" style="fill:#b8ea86;fill-rule:nonzero;"/></g><g transform="matrix(225.314,0,0,225.314,2078.43,971.124)"><rect x="0.065" y="-0.7" width="0.14" height="0.7" style="fill:#b8ea86;fill-rule:nonzero;"/></g><g transform="matrix(225.314,0,0,225.314,2206.86,971.124)"><path d="M0.76,0l-0.14,0l0,-0.5c0,-0.01 -0.002,-0.019 -0.005,-0.027c-0.004,-0.009 -0.009,-0.016 -0.016,-0.023c-0.006,-0.006 -0.013,-0.011 -0.022,-0.014c-0.008,-0.004 -0.017,-0.006 -0.027,-0.006c-0.01,0 -0.019,0.002 -0.028,0.006c-0.008,0.003 -0.015,0.008 -0.022,0.014c-0.006,0.007 -0.011,0.014 -0.015,0.023c-0.003,0.008 -0.005,0.017 -0.005,0.027l0,0.5l-0.14,0l0,-0.5c0,-0.01 -0.002,-0.019 -0.006,-0.027c-0.003,-0.009 -0.008,-0.016 -0.014,-0.023c-0.007,-0.006 -0.014,-0.011 -0.023,-0.014c-0.008,-0.004 -0.017,-0.006 -0.027,-0.006c-0.01,0 -0.019,0.002 -0.027,0.006c-0.009,0.003 -0.016,0.008 -0.023,0.014c-0.006,0.007 -0.011,0.014 -0.014,0.023c-0.004,0.008 -0.006,0.017 -0.006,0.027l0,0.5l-0.14,0l0,-0.5c0,-0.029 0.006,-0.056 0.016,-0.082c0.011,-0.025 0.026,-0.048 0.045,-0.067c0.019,-0.019 0.042,-0.034 0.067,-0.045c0.026,-0.011 0.053,-0.016 0.082,-0.016c0.026,0 0.051,0.005 0.075,0.014c0.024,0.009 0.046,0.023 0.065,0.04c0.019,-0.017 0.041,-0.031 0.065,-0.04c0.024,-0.009 0.049,-0.014 0.075,-0.014c0.029,0 0.056,0.005 0.082,0.016c0.025,0.011 0.047,0.026 0.066,0.045c0.02,0.019 0.035,0.042 0.045,0.067c0.011,0.026 0.017,0.053 0.017,0.082l0,0.5Z" style="fill:#b8ea86;fill-rule:nonzero;"/></g><g transform="matrix(225.314,0,0,225.314,2459.17,971.124)"><rect x="0.065" y="-0.7" width="0.14" height="0.7" style="fill:#b8ea86;fill-rule:nonzero;"/></g><g transform="matrix(225.314,0,0,225.314,2587.61,971.124)"><path d="M0.359,0l-0.14,0l0,-0.56l-0.21,0l0,-0.14l0.56,0l0,0.14l-0.21,0l0,0.56Z" style="fill:#b8ea86;fill-rule:nonzero;"/></g><g transform="matrix(225.314,0,0,225.314,2785.46,971.124)"><path d="M0.545,0l-0.48,0l0,-0.7l0.48,0l0,0.14l-0.34,0l0,0.14l0.23,0l0,0.14l-0.23,0l0,0.14l0.34,0l0,0.14Z" style="fill:#b8ea86;fill-rule:nonzero;"/></g><g transform="matrix(225.314,0,0,225.314,2983.31,971.124)"><path d="M0.626,-0.35c0,0.032 -0.004,0.063 -0.012,0.093c-0.009,0.03 -0.021,0.058 -0.036,0.083c-0.015,0.026 -0.033,0.05 -0.055,0.071c-0.021,0.022 -0.044,0.04 -0.07,0.055c-0.026,0.015 -0.054,0.027 -0.084,0.036c-0.03,0.008 -0.061,0.012 -0.093,0.012l-0.211,0l0,-0.7l0.211,0c0.032,0 0.063,0.004 0.093,0.012c0.03,0.009 0.058,0.02 0.084,0.036c0.026,0.015 0.049,0.033 0.07,0.055c0.022,0.021 0.04,0.045 0.055,0.07c0.015,0.026 0.027,0.054 0.036,0.084c0.008,0.03 0.012,0.061 0.012,0.093Zm-0.14,0c0,-0.029 -0.006,-0.056 -0.017,-0.082c-0.01,-0.025 -0.025,-0.047 -0.044,-0.066c-0.019,-0.019 -0.042,-0.034 -0.067,-0.045c-0.026,-0.012 -0.053,-0.017 -0.082,-0.017l-0.07,0l0,0.42l0.07,0c0.029,0 0.056,-0.006 0.082,-0.016c0.025,-0.011 0.048,-0.026 0.067,-0.045c0.019,-0.019 0.034,-0.042 0.044,-0.067c0.011,-0.026 0.017,-0.053 0.017,-0.082Z" style="fill:#b8ea86;fill-rule:nonzero;"/></g></g></svg>