<?xml version="1.0" encoding="UTF-8" standalone="no"?><!DOCTYPE svg PUBLIC "-//W3C//DTD SVG 1.1//EN" "http://www.w3.org/Graphics/SVG/1.1/DTD/svg11.dtd"><svg width="100%" height="100%" viewBox="0 0 3750 1750" version="1.1" xmlns="http://www.w3.org/2000/svg" xmlns:xlink="http://www.w3.org/1999/xlink" xml:space="preserve" xmlns:serif="http://www.serif.com/" style="fill-rule:evenodd;clip-rule:evenodd;stroke-linejoin:round;stroke-miterlimit:2;"><rect id="diagonals-lower-left" x="0" y="0" width="3750" height="1750" style="fill:none;"/><clipPath id="_clip1"><rect x="0" y="0" width="3750" height="1750"/></clipPath><g clip-path="url(#_clip1)"><g><path d="M442.499,1429.86l99.396,-172.159c1.941,-3.362 4.48,-6.081 7.615,-8.156c3.136,-2.075 6.567,-3.494 10.293,-4.257c3.726,-0.763 7.587,-0.813 11.585,-0.149c3.997,0.664 7.891,2.09 11.682,4.279c3.79,2.189 6.973,4.848 9.546,7.978c2.574,3.129 4.462,6.498 5.664,10.107c1.202,3.608 1.657,7.27 1.364,10.987c-0.292,3.717 -1.409,7.256 -3.35,10.619l-99.396,172.158l54.398,31.408l99.396,-172.159c1.942,-3.363 4.449,-6.1 7.521,-8.212c3.073,-2.111 6.472,-3.548 10.198,-4.311c3.726,-0.763 7.587,-0.813 11.584,-0.149c3.998,0.664 7.892,2.09 11.682,4.279c3.791,2.188 6.974,4.848 9.547,7.977c2.574,3.13 4.462,6.499 5.664,10.107c1.202,3.609 1.657,7.271 1.364,10.988c-0.292,3.716 -1.409,7.256 -3.35,10.618l-99.396,172.159l54.398,31.407l99.396,-172.159c5.76,-9.975 9.063,-20.584 9.909,-31.826c0.847,-11.243 -0.533,-22.276 -4.14,-33.101c-3.606,-10.825 -9.285,-20.978 -17.037,-30.46c-7.751,-9.481 -17.25,-17.469 -28.496,-23.962c-10.109,-5.836 -20.761,-9.857 -31.956,-12.061c-11.195,-2.204 -22.268,-2.432 -33.218,-0.684c-3.96,-10.357 -9.663,-19.814 -17.106,-28.37c-7.443,-8.557 -16.219,-15.753 -26.328,-21.59c-11.247,-6.493 -22.913,-10.725 -35,-12.697c-12.088,-1.973 -23.72,-1.814 -34.898,0.475c-11.178,2.289 -21.423,6.611 -30.736,12.965c-9.313,6.355 -16.849,14.519 -22.608,24.495l-99.396,172.159l0.115,0.066l-99.396,172.159c-1.941,3.363 -4.48,6.081 -7.615,8.157c-3.136,2.075 -6.567,3.494 -10.293,4.257c-3.726,0.763 -7.587,0.812 -11.584,0.148c-3.998,-0.663 -7.892,-2.09 -11.683,-4.278c-3.79,-2.189 -6.973,-4.848 -9.546,-7.978c-2.574,-3.13 -4.462,-6.499 -5.664,-10.107c-1.202,-3.608 -1.657,-7.271 -1.364,-10.987c0.292,-3.717 1.409,-7.256 3.35,-10.619l99.396,-172.159l-54.398,-31.407l-99.396,172.159c-1.942,3.362 -4.449,6.099 -7.521,8.211c-3.072,2.112 -6.472,3.549 -10.198,4.312c-3.725,0.763 -7.587,0.813 -11.584,0.149c-3.997,-0.664 -7.892,-2.091 -11.682,-4.279c-3.791,-2.189 -6.973,-4.848 -9.547,-7.978c-2.574,-3.129 -4.462,-6.498 -5.664,-10.107c-1.202,-3.608 -1.657,-7.27 -1.364,-10.987c0.292,-3.717 1.409,-7.256 3.351,-10.619l99.396,-172.159l-54.399,-31.407l-99.396,172.159c-5.759,9.976 -9.062,20.584 -9.909,31.827c-0.847,11.242 0.533,22.276 4.14,33.101c3.606,10.824 9.285,20.978 17.037,30.459c7.751,9.482 17.25,17.469 28.497,23.962c10.108,5.837 20.76,9.857 31.955,12.061c11.196,2.205 22.268,2.433 33.218,0.685c3.961,10.357 9.663,19.813 17.106,28.37c7.443,8.556 16.219,15.753 26.328,21.589c11.247,6.493 22.913,10.726 35.001,12.698c12.087,1.972 23.719,1.814 34.897,-0.475c11.178,-2.289 21.423,-6.611 30.736,-12.965c9.313,-6.355 16.849,-14.52 22.608,-24.495l99.396,-172.159" style="fill:#abe670;"/><path d="M1733.81,1439.47l-99.396,172.159c-1.942,3.362 -4.48,6.081 -7.616,8.156c-3.135,2.076 -6.566,3.495 -10.292,4.258c-3.726,0.763 -7.588,0.812 -11.585,0.148c-3.997,-0.664 -7.891,-2.09 -11.682,-4.279c-3.791,-2.188 -6.973,-4.847 -9.547,-7.977c-2.573,-3.13 -4.461,-6.499 -5.663,-10.107c-1.202,-3.608 -1.657,-7.271 -1.365,-10.987c0.293,-3.717 1.41,-7.257 3.351,-10.619l99.396,-172.159l-54.399,-31.407l-99.396,172.159c-1.941,3.362 -4.448,6.099 -7.52,8.211c-3.073,2.112 -6.472,3.549 -10.198,4.312c-3.726,0.763 -7.588,0.812 -11.585,0.149c-3.997,-0.664 -7.891,-2.091 -11.682,-4.279c-3.791,-2.189 -6.973,-4.848 -9.546,-7.978c-2.574,-3.13 -4.462,-6.499 -5.664,-10.107c-1.202,-3.608 -1.657,-7.271 -1.365,-10.987c0.293,-3.717 1.41,-7.256 3.351,-10.619l99.396,-172.159l-54.399,-31.407l-99.396,172.159c-5.759,9.975 -9.062,20.584 -9.909,31.827c-0.846,11.242 0.534,22.276 4.14,33.101c3.607,10.824 9.286,20.977 17.037,30.459c7.752,9.482 17.251,17.469 28.497,23.962c10.109,5.837 20.761,9.857 31.956,12.061c11.195,2.205 22.267,2.433 33.217,0.685c3.961,10.356 9.663,19.813 17.107,28.37c7.443,8.556 16.219,15.753 26.328,21.589c11.246,6.493 22.913,10.726 35,12.698c12.087,1.972 23.72,1.814 34.897,-0.475c11.178,-2.289 21.424,-6.611 30.736,-12.966c9.313,-6.354 16.85,-14.519 22.609,-24.494l99.396,-172.159l-0.115,-0.067l99.396,-172.159c1.941,-3.362 4.479,-6.081 7.615,-8.156c3.136,-2.075 6.566,-3.494 10.292,-4.257c3.726,-0.763 7.588,-0.813 11.585,-0.149c3.997,0.664 7.891,2.09 11.682,4.279c3.791,2.189 6.973,4.848 9.547,7.977c2.573,3.13 4.461,6.499 5.663,10.107c1.203,3.609 1.657,7.271 1.365,10.988c-0.293,3.716 -1.409,7.256 -3.351,10.618l-99.396,172.159l54.399,31.407l99.396,-172.158c1.941,-3.363 4.448,-6.1 7.521,-8.212c3.072,-2.111 6.471,-3.549 10.197,-4.312c3.726,-0.763 7.588,-0.812 11.585,-0.148c3.997,0.664 7.891,2.09 11.682,4.279c3.791,2.188 6.973,4.847 9.547,7.977c2.573,3.13 4.461,6.499 5.663,10.107c1.203,3.608 1.657,7.271 1.365,10.987c-0.293,3.717 -1.41,7.257 -3.351,10.619l-99.396,172.159l54.399,31.407l99.396,-172.159c5.759,-9.975 9.062,-20.584 9.909,-31.826c0.846,-11.243 -0.533,-22.277 -4.14,-33.101c-3.607,-10.825 -9.286,-20.978 -17.037,-30.46c-7.752,-9.482 -17.251,-17.469 -28.497,-23.962c-10.109,-5.836 -20.761,-9.857 -31.956,-12.061c-11.195,-2.204 -22.267,-2.432 -33.217,-0.684c-3.961,-10.357 -9.663,-19.814 -17.106,-28.37c-7.444,-8.557 -16.22,-15.753 -26.329,-21.59c-11.246,-6.493 -22.913,-10.725 -35,-12.697c-12.087,-1.973 -23.72,-1.814 -34.897,0.475c-11.178,2.289 -21.423,6.61 -30.736,12.965c-9.313,6.354 -16.849,14.519 -22.609,24.495l-99.396,172.159" style="fill:#abe670;"/><path d="M2364.95,1850.19l-99.396,172.159c-1.941,3.362 -4.479,6.081 -7.615,8.156c-3.136,2.075 -6.566,3.494 -10.292,4.257c-3.726,0.763 -7.588,0.813 -11.585,0.149c-3.997,-0.664 -7.891,-2.09 -11.682,-4.279c-3.791,-2.189 -6.973,-4.848 -9.547,-7.978c-2.573,-3.129 -4.461,-6.498 -5.664,-10.107c-1.202,-3.608 -1.657,-7.27 -1.364,-10.987c0.292,-3.717 1.409,-7.256 3.351,-10.619l99.396,-172.158l-54.399,-31.408l-99.396,172.159c-1.941,3.363 -4.448,6.1 -7.521,8.212c-3.072,2.111 -6.471,3.548 -10.197,4.311c-3.726,0.763 -7.588,0.813 -11.585,0.149c-3.997,-0.664 -7.891,-2.09 -11.682,-4.279c-3.791,-2.188 -6.973,-4.848 -9.547,-7.977c-2.573,-3.13 -4.461,-6.499 -5.663,-10.107c-1.203,-3.609 -1.657,-7.271 -1.365,-10.988c0.293,-3.716 1.41,-7.256 3.351,-10.618l99.396,-172.159l-54.399,-31.407l-99.396,172.159c-5.759,9.975 -9.062,20.584 -9.909,31.826c-0.846,11.243 0.533,22.276 4.14,33.101c3.607,10.825 9.286,20.978 17.037,30.46c7.752,9.481 17.251,17.469 28.497,23.962c10.109,5.836 20.761,9.857 31.956,12.061c11.195,2.204 22.267,2.432 33.217,0.684c3.961,10.357 9.663,19.814 17.106,28.37c7.444,8.557 16.22,15.753 26.329,21.59c11.246,6.493 22.913,10.725 35,12.697c12.087,1.973 23.72,1.814 34.897,-0.475c11.178,-2.289 21.423,-6.611 30.736,-12.965c9.313,-6.354 16.849,-14.519 22.609,-24.495l99.396,-172.159l-0.116,-0.066l99.396,-172.159c1.942,-3.363 4.48,-6.081 7.616,-8.157c3.135,-2.075 6.566,-3.494 10.292,-4.257c3.726,-0.763 7.588,-0.812 11.585,-0.148c3.997,0.663 7.891,2.09 11.682,4.278c3.791,2.189 6.973,4.848 9.547,7.978c2.573,3.13 4.461,6.499 5.663,10.107c1.202,3.608 1.657,7.271 1.365,10.987c-0.293,3.717 -1.41,7.256 -3.351,10.619l-99.396,172.159l54.399,31.407l99.396,-172.159c1.941,-3.362 4.448,-6.099 7.52,-8.211c3.073,-2.112 6.472,-3.549 10.198,-4.312c3.726,-0.763 7.587,-0.813 11.585,-0.149c3.997,0.664 7.891,2.091 11.682,4.279c3.791,2.189 6.973,4.848 9.546,7.978c2.574,3.129 4.462,6.498 5.664,10.107c1.202,3.608 1.657,7.27 1.365,10.987c-0.293,3.717 -1.41,7.256 -3.351,10.619l-99.396,172.159l54.399,31.407l99.396,-172.159c5.759,-9.976 9.062,-20.584 9.909,-31.827c0.846,-11.242 -0.534,-22.276 -4.14,-33.101c-3.607,-10.824 -9.286,-20.978 -17.037,-30.459c-7.752,-9.482 -17.251,-17.469 -28.497,-23.962c-10.109,-5.837 -20.761,-9.857 -31.956,-12.061c-11.195,-2.205 -22.267,-2.433 -33.217,-0.685c-3.961,-10.357 -9.663,-19.813 -17.107,-28.37c-7.443,-8.556 -16.219,-15.753 -26.328,-21.589c-11.246,-6.493 -22.913,-10.726 -35,-12.698c-12.087,-1.972 -23.72,-1.814 -34.898,0.475c-11.177,2.289 -21.423,6.611 -30.736,12.965c-9.312,6.355 -16.849,14.52 -22.608,24.495l-99.396,172.159" style="fill:#abe670;"/><path d="M1073.41,1840.03l99.396,-172.158c1.941,-3.363 4.48,-6.082 7.615,-8.157c3.136,-2.075 6.567,-3.494 10.293,-4.257c3.726,-0.763 7.587,-0.813 11.584,-0.149c3.998,0.664 7.892,2.09 11.682,4.279c3.791,2.189 6.974,4.848 9.547,7.978c2.574,3.129 4.462,6.498 5.664,10.107c1.202,3.608 1.657,7.27 1.364,10.987c-0.292,3.717 -1.409,7.256 -3.35,10.619l-99.396,172.159l54.398,31.407l99.396,-172.159c1.942,-3.363 4.448,-6.1 7.521,-8.211c3.072,-2.112 6.472,-3.549 10.197,-4.312c3.726,-0.763 7.588,-0.813 11.585,-0.149c3.997,0.664 7.891,2.09 11.682,4.279c3.791,2.189 6.973,4.848 9.547,7.977c2.574,3.13 4.461,6.499 5.664,10.107c1.202,3.609 1.657,7.271 1.364,10.988c-0.292,3.716 -1.409,7.256 -3.351,10.618l-99.396,172.159l54.399,31.407l99.396,-172.158c5.759,-9.976 9.062,-20.585 9.909,-31.827c0.847,-11.243 -0.533,-22.276 -4.14,-33.101c-3.606,-10.825 -9.285,-20.978 -17.037,-30.46c-7.752,-9.481 -17.25,-17.469 -28.497,-23.962c-10.109,-5.836 -20.761,-9.856 -31.956,-12.061c-11.195,-2.204 -22.267,-2.432 -33.217,-0.684c-3.961,-10.357 -9.663,-19.813 -17.106,-28.37c-7.443,-8.557 -16.22,-15.753 -26.328,-21.589c-11.247,-6.493 -22.913,-10.726 -35.001,-12.698c-12.087,-1.972 -23.719,-1.814 -34.897,0.475c-11.178,2.289 -21.423,6.611 -30.736,12.965c-9.313,6.355 -16.849,14.52 -22.608,24.495l-99.396,172.159l0.115,0.066l-99.396,172.159c-1.941,3.363 -4.48,6.082 -7.616,8.157c-3.135,2.075 -6.566,3.494 -10.292,4.257c-3.726,0.763 -7.587,0.813 -11.585,0.149c-3.997,-0.664 -7.891,-2.091 -11.682,-4.279c-3.791,-2.189 -6.973,-4.848 -9.546,-7.978c-2.574,-3.13 -4.462,-6.499 -5.664,-10.107c-1.202,-3.608 -1.657,-7.27 -1.365,-10.987c0.293,-3.717 1.41,-7.256 3.351,-10.619l99.396,-172.159l-54.398,-31.407l-99.396,172.159c-1.942,3.363 -4.449,6.1 -7.521,8.211c-3.073,2.112 -6.472,3.549 -10.198,4.312c-3.726,0.763 -7.587,0.813 -11.584,0.149c-3.998,-0.664 -7.892,-2.09 -11.683,-4.279c-3.79,-2.189 -6.973,-4.848 -9.546,-7.978c-2.574,-3.129 -4.462,-6.498 -5.664,-10.107c-1.202,-3.608 -1.657,-7.27 -1.364,-10.987c0.292,-3.717 1.409,-7.256 3.35,-10.619l99.396,-172.159l-54.398,-31.407l-99.396,172.159c-5.76,9.976 -9.063,20.585 -9.909,31.827c-0.847,11.243 0.533,22.276 4.14,33.101c3.606,10.825 9.285,20.978 17.037,30.459c7.751,9.482 17.25,17.47 28.496,23.963c10.109,5.836 20.761,9.856 31.956,12.061c11.195,2.204 22.268,2.432 33.217,0.684c3.961,10.357 9.664,19.813 17.107,28.37c7.443,8.556 16.219,15.753 26.328,21.589c11.246,6.493 22.913,10.726 35,12.698c12.088,1.972 23.72,1.814 34.898,-0.475c11.178,-2.289 21.423,-6.611 30.736,-12.965c9.313,-6.355 16.849,-14.52 22.608,-24.495l99.396,-172.159" style="fill:#abe670;"/><path d="M-160.456,211.53l-99.396,172.159c-1.941,3.362 -4.48,6.081 -7.615,8.156c-3.136,2.075 -6.567,3.494 -10.293,4.257c-3.725,0.763 -7.587,0.813 -11.584,0.149c-3.997,-0.664 -7.891,-2.09 -11.682,-4.279c-3.791,-2.188 -6.973,-4.848 -9.547,-7.977c-2.574,-3.13 -4.461,-6.499 -5.664,-10.107c-1.202,-3.609 -1.657,-7.271 -1.364,-10.988c0.292,-3.716 1.409,-7.256 3.351,-10.618l99.396,-172.159l-54.399,-31.407l-99.396,172.158c-1.941,3.363 -4.448,6.1 -7.521,8.212c-3.072,2.111 -6.471,3.549 -10.197,4.312c-3.726,0.763 -7.588,0.812 -11.585,0.148c-3.997,-0.664 -7.891,-2.09 -11.682,-4.279c-3.791,-2.188 -6.973,-4.847 -9.547,-7.977c-2.573,-3.13 -4.461,-6.499 -5.664,-10.107c-1.202,-3.608 -1.657,-7.271 -1.364,-10.987c0.292,-3.717 1.409,-7.257 3.351,-10.619l99.396,-172.159l-54.399,-31.407l-99.396,172.159c-5.759,9.975 -9.062,20.584 -9.909,31.826c-0.847,11.243 0.533,22.277 4.14,33.101c3.606,10.825 9.286,20.978 17.037,30.46c7.752,9.482 17.251,17.469 28.497,23.962c10.109,5.836 20.761,9.857 31.956,12.061c11.195,2.204 22.267,2.432 33.217,0.684c3.961,10.357 9.663,19.814 17.106,28.37c7.444,8.557 16.22,15.753 26.329,21.59c11.246,6.493 22.912,10.725 35,12.698c12.087,1.972 23.719,1.813 34.897,-0.476c11.178,-2.289 21.423,-6.61 30.736,-12.965c9.313,-6.354 16.849,-14.519 22.608,-24.495l99.396,-172.159l-0.115,-0.066l99.396,-172.159c1.942,-3.362 4.48,-6.081 7.616,-8.156c3.135,-2.076 6.566,-3.495 10.292,-4.258c3.726,-0.763 7.587,-0.812 11.585,-0.148c3.997,0.664 7.891,2.09 11.682,4.279c3.791,2.188 6.973,4.847 9.546,7.977c2.574,3.13 4.462,6.499 5.664,10.107c1.202,3.608 1.657,7.271 1.365,10.987c-0.293,3.717 -1.41,7.257 -3.351,10.619l-99.396,172.159l54.399,31.407l99.396,-172.159c1.941,-3.362 4.448,-6.099 7.52,-8.211c3.073,-2.112 6.472,-3.549 10.198,-4.312c3.726,-0.763 7.587,-0.812 11.585,-0.149c3.997,0.664 7.891,2.091 11.682,4.279c3.791,2.189 6.973,4.848 9.546,7.978c2.574,3.13 4.462,6.499 5.664,10.107c1.202,3.608 1.657,7.271 1.364,10.987c-0.292,3.717 -1.409,7.256 -3.35,10.619l-99.396,172.159l54.398,31.407l99.396,-172.159c5.76,-9.975 9.063,-20.584 9.909,-31.827c0.847,-11.242 -0.533,-22.276 -4.139,-33.101c-3.607,-10.824 -9.286,-20.977 -17.038,-30.459c-7.751,-9.482 -17.25,-17.469 -28.496,-23.962c-10.109,-5.837 -20.761,-9.857 -31.956,-12.061c-11.195,-2.205 -22.268,-2.433 -33.217,-0.685c-3.961,-10.356 -9.663,-19.813 -17.107,-28.37c-7.443,-8.556 -16.219,-15.753 -26.328,-21.589c-11.246,-6.493 -22.913,-10.726 -35,-12.698c-12.087,-1.972 -23.72,-1.814 -34.898,0.475c-11.177,2.289 -21.423,6.611 -30.736,12.966c-9.313,6.354 -16.849,14.519 -22.608,24.494l-99.396,172.159" style="fill:#abe670;"/><path d="M1102.9,1029.3l-99.396,172.159c-1.942,3.362 -4.48,6.081 -7.616,8.156c-3.135,2.076 -6.566,3.495 -10.292,4.258c-3.726,0.763 -7.587,0.812 -11.585,0.148c-3.997,-0.664 -7.891,-2.09 -11.682,-4.279c-3.791,-2.188 -6.973,-4.847 -9.546,-7.977c-2.574,-3.13 -4.462,-6.499 -5.664,-10.107c-1.202,-3.608 -1.657,-7.271 -1.365,-10.988c0.293,-3.716 1.41,-7.256 3.351,-10.618l99.396,-172.159l-54.399,-31.407l-99.396,172.159c-1.941,3.362 -4.448,6.099 -7.52,8.211c-3.073,2.112 -6.472,3.549 -10.198,4.312c-3.726,0.763 -7.587,0.812 -11.585,0.148c-3.997,-0.663 -7.891,-2.09 -11.682,-4.278c-3.791,-2.189 -6.973,-4.848 -9.546,-7.978c-2.574,-3.13 -4.462,-6.499 -5.664,-10.107c-1.202,-3.608 -1.657,-7.271 -1.365,-10.987c0.293,-3.717 1.41,-7.257 3.351,-10.619l99.396,-172.159l-54.398,-31.407l-99.396,172.159c-5.76,9.975 -9.063,20.584 -9.909,31.827c-0.847,11.242 0.533,22.276 4.139,33.1c3.607,10.825 9.286,20.978 17.038,30.46c7.751,9.482 17.25,17.469 28.496,23.962c10.109,5.837 20.761,9.857 31.956,12.061c11.195,2.205 22.268,2.433 33.217,0.684c3.961,10.357 9.663,19.814 17.107,28.371c7.443,8.556 16.219,15.753 26.328,21.589c11.246,6.493 22.913,10.726 35,12.698c12.087,1.972 23.72,1.814 34.898,-0.475c11.177,-2.289 21.423,-6.611 30.736,-12.966c9.313,-6.354 16.849,-14.519 22.608,-24.494l99.396,-172.159l-0.115,-0.067l99.396,-172.159c1.941,-3.362 4.48,-6.081 7.615,-8.156c3.136,-2.075 6.567,-3.495 10.293,-4.258c3.725,-0.762 7.587,-0.812 11.584,-0.148c3.997,0.664 7.891,2.09 11.682,4.279c3.791,2.188 6.973,4.848 9.547,7.977c2.574,3.13 4.461,6.499 5.664,10.107c1.202,3.609 1.657,7.271 1.364,10.988c-0.292,3.716 -1.409,7.256 -3.351,10.618l-99.396,172.159l54.399,31.407l99.396,-172.159c1.941,-3.362 4.448,-6.099 7.521,-8.211c3.072,-2.111 6.471,-3.549 10.197,-4.312c3.726,-0.763 7.588,-0.812 11.585,-0.148c3.997,0.664 7.891,2.09 11.682,4.279c3.791,2.188 6.973,4.847 9.547,7.977c2.573,3.13 4.461,6.499 5.663,10.107c1.203,3.608 1.658,7.271 1.365,10.987c-0.292,3.717 -1.409,7.257 -3.351,10.619l-99.396,172.159l54.399,31.407l99.396,-172.159c5.759,-9.975 9.062,-20.584 9.909,-31.827c0.847,-11.242 -0.533,-22.276 -4.14,-33.1c-3.606,-10.825 -9.286,-20.978 -17.037,-30.46c-7.752,-9.482 -17.251,-17.469 -28.497,-23.962c-10.109,-5.836 -20.761,-9.857 -31.956,-12.061c-11.195,-2.204 -22.267,-2.433 -33.217,-0.684c-3.961,-10.357 -9.663,-19.814 -17.106,-28.37c-7.444,-8.557 -16.22,-15.753 -26.329,-21.59c-11.246,-6.493 -22.912,-10.725 -35,-12.698c-12.087,-1.972 -23.719,-1.813 -34.897,0.476c-11.178,2.289 -21.423,6.61 -30.736,12.965c-9.313,6.354 -16.849,14.519 -22.608,24.495l-99.396,172.158" style="fill:#abe670;"/><path d="M-189.955,1022.26l99.396,-172.159c1.942,-3.362 4.48,-6.081 7.616,-8.156c3.135,-2.075 6.566,-3.494 10.292,-4.257c3.726,-0.763 7.588,-0.813 11.585,-0.149c3.997,0.664 7.891,2.09 11.682,4.279c3.791,2.189 6.973,4.848 9.547,7.977c2.573,3.13 4.461,6.499 5.663,10.107c1.202,3.609 1.657,7.271 1.365,10.988c-0.293,3.716 -1.41,7.256 -3.351,10.618l-99.396,172.159l54.399,31.408l99.396,-172.159c1.941,-3.363 4.448,-6.1 7.52,-8.212c3.073,-2.111 6.472,-3.549 10.198,-4.312c3.726,-0.763 7.587,-0.812 11.585,-0.148c3.997,0.664 7.891,2.09 11.682,4.279c3.791,2.188 6.973,4.848 9.546,7.977c2.574,3.13 4.462,6.499 5.664,10.107c1.202,3.608 1.657,7.271 1.365,10.988c-0.293,3.716 -1.41,7.256 -3.351,10.618l-99.396,172.159l54.399,31.407l99.396,-172.159c5.759,-9.975 9.062,-20.584 9.909,-31.826c0.846,-11.243 -0.534,-22.276 -4.14,-33.101c-3.607,-10.825 -9.286,-20.978 -17.038,-30.46c-7.751,-9.482 -17.25,-17.469 -28.496,-23.962c-10.109,-5.836 -20.761,-9.857 -31.956,-12.061c-11.195,-2.204 -22.268,-2.432 -33.217,-0.684c-3.961,-10.357 -9.663,-19.814 -17.107,-28.37c-7.443,-8.557 -16.219,-15.753 -26.328,-21.59c-11.246,-6.493 -22.913,-10.725 -35,-12.697c-12.087,-1.973 -23.72,-1.814 -34.898,0.475c-11.177,2.289 -21.423,6.61 -30.736,12.965c-9.312,6.354 -16.849,14.519 -22.608,24.495l-99.396,172.159l0.115,0.066l-99.396,172.159c-1.941,3.363 -4.479,6.081 -7.615,8.157c-3.136,2.075 -6.566,3.494 -10.292,4.257c-3.726,0.763 -7.588,0.812 -11.585,0.148c-3.997,-0.664 -7.891,-2.09 -11.682,-4.278c-3.791,-2.189 -6.973,-4.848 -9.547,-7.978c-2.573,-3.13 -4.461,-6.499 -5.664,-10.107c-1.202,-3.608 -1.657,-7.271 -1.364,-10.987c0.292,-3.717 1.409,-7.257 3.351,-10.619l99.396,-172.159l-54.399,-31.407l-99.396,172.159c-1.941,3.362 -4.448,6.099 -7.521,8.211c-3.072,2.112 -6.471,3.549 -10.197,4.312c-3.726,0.763 -7.588,0.813 -11.585,0.149c-3.997,-0.664 -7.891,-2.091 -11.682,-4.279c-3.791,-2.189 -6.973,-4.848 -9.547,-7.978c-2.573,-3.13 -4.461,-6.499 -5.663,-10.107c-1.203,-3.608 -1.657,-7.27 -1.365,-10.987c0.293,-3.717 1.409,-7.256 3.351,-10.619l99.396,-172.159l-54.399,-31.407l-99.396,172.159c-5.759,9.975 -9.062,20.584 -9.909,31.827c-0.847,11.242 0.533,22.276 4.14,33.101c3.607,10.824 9.286,20.978 17.037,30.459c7.752,9.482 17.251,17.469 28.497,23.962c10.109,5.837 20.761,9.857 31.956,12.061c11.195,2.205 22.267,2.433 33.217,0.685c3.961,10.356 9.663,19.813 17.106,28.37c7.444,8.556 16.22,15.753 26.329,21.589c11.246,6.493 22.913,10.726 35,12.698c12.087,1.972 23.719,1.814 34.897,-0.475c11.178,-2.289 21.423,-6.611 30.736,-12.965c9.313,-6.355 16.849,-14.52 22.609,-24.495l99.396,-172.159" style="fill:#abe670;"/><path d="M470.451,621.695l-99.396,172.159c-1.941,3.362 -4.48,6.081 -7.615,8.156c-3.136,2.075 -6.567,3.495 -10.293,4.258c-3.726,0.763 -7.587,0.812 -11.584,0.148c-3.998,-0.664 -7.892,-2.09 -11.683,-4.279c-3.79,-2.188 -6.973,-4.848 -9.546,-7.977c-2.574,-3.13 -4.462,-6.499 -5.664,-10.107c-1.202,-3.609 -1.657,-7.271 -1.364,-10.988c0.292,-3.716 1.409,-7.256 3.35,-10.618l99.396,-172.159l-54.398,-31.407l-99.396,172.159c-1.942,3.362 -4.449,6.099 -7.521,8.211c-3.072,2.111 -6.472,3.549 -10.198,4.312c-3.725,0.763 -7.587,0.812 -11.584,0.148c-3.997,-0.664 -7.892,-2.09 -11.682,-4.279c-3.791,-2.188 -6.973,-4.847 -9.547,-7.977c-2.574,-3.13 -4.461,-6.499 -5.664,-10.107c-1.202,-3.608 -1.657,-7.271 -1.364,-10.987c0.292,-3.717 1.409,-7.257 3.351,-10.619l99.396,-172.159l-54.399,-31.407l-99.396,172.159c-5.759,9.975 -9.062,20.584 -9.909,31.827c-0.847,11.242 0.533,22.276 4.14,33.1c3.606,10.825 9.285,20.978 17.037,30.46c7.751,9.482 17.25,17.469 28.497,23.962c10.108,5.836 20.76,9.857 31.956,12.061c11.195,2.204 22.267,2.433 33.217,0.684c3.961,10.357 9.663,19.814 17.106,28.37c7.443,8.557 16.219,15.753 26.328,21.59c11.247,6.493 22.913,10.725 35.001,12.698c12.087,1.972 23.719,1.813 34.897,-0.476c11.178,-2.289 21.423,-6.61 30.736,-12.965c9.313,-6.354 16.849,-14.519 22.608,-24.495l99.396,-172.158l-0.115,-0.067l99.396,-172.159c1.941,-3.362 4.48,-6.081 7.615,-8.156c3.136,-2.076 6.567,-3.495 10.293,-4.258c3.726,-0.763 7.587,-0.812 11.585,-0.148c3.997,0.664 7.891,2.09 11.682,4.279c3.79,2.188 6.973,4.847 9.546,7.977c2.574,3.13 4.462,6.499 5.664,10.107c1.202,3.608 1.657,7.271 1.364,10.988c-0.292,3.716 -1.409,7.256 -3.35,10.618l-99.396,172.159l54.398,31.407l99.396,-172.159c1.942,-3.362 4.449,-6.099 7.521,-8.211c3.073,-2.112 6.472,-3.549 10.198,-4.312c3.726,-0.763 7.587,-0.812 11.584,-0.148c3.998,0.663 7.892,2.09 11.682,4.278c3.791,2.189 6.974,4.848 9.547,7.978c2.574,3.13 4.462,6.499 5.664,10.107c1.202,3.608 1.657,7.271 1.364,10.987c-0.292,3.717 -1.409,7.257 -3.35,10.619l-99.396,172.159l54.398,31.407l99.396,-172.159c5.76,-9.975 9.063,-20.584 9.909,-31.827c0.847,-11.242 -0.533,-22.276 -4.14,-33.1c-3.606,-10.825 -9.285,-20.978 -17.037,-30.46c-7.751,-9.482 -17.25,-17.469 -28.496,-23.962c-10.109,-5.837 -20.761,-9.857 -31.956,-12.061c-11.195,-2.205 -22.268,-2.433 -33.218,-0.684c-3.96,-10.357 -9.663,-19.814 -17.106,-28.371c-7.443,-8.556 -16.219,-15.753 -26.328,-21.589c-11.247,-6.493 -22.913,-10.726 -35,-12.698c-12.088,-1.972 -23.72,-1.814 -34.898,0.475c-11.178,2.289 -21.423,6.611 -30.736,12.966c-9.313,6.354 -16.849,14.519 -22.608,24.494l-99.396,172.159" style="fill:#abe670;"/></g><g><path d="M72.836,1193.48l99.396,-172.159c5.76,-9.975 13.296,-18.14 22.609,-24.495c9.313,-6.354 19.558,-10.676 30.736,-12.965c11.177,-2.289 22.81,-2.447 34.897,-0.475c12.087,1.972 23.754,6.205 35,12.698c10.109,5.836 18.917,13.051 26.423,21.644c7.507,8.593 13.241,18.068 17.202,28.425c10.949,-1.748 21.99,-1.539 33.122,0.629c11.132,2.168 21.752,6.17 31.861,12.007c11.246,6.493 20.745,14.48 28.497,23.962c7.751,9.481 13.43,19.635 17.037,30.459c3.607,10.825 4.986,21.859 4.14,33.101c-0.847,11.243 -4.15,21.852 -9.909,31.827l-99.396,172.159l-54.209,-31.298l99.396,-172.159c1.941,-3.362 3.026,-6.92 3.256,-10.673c0.229,-3.753 -0.257,-7.434 -1.46,-11.042c-1.202,-3.608 -3.09,-6.977 -5.663,-10.107c-2.574,-3.13 -5.756,-5.789 -9.547,-7.978c-3.791,-2.188 -7.685,-3.615 -11.682,-4.279c-3.997,-0.664 -7.859,-0.614 -11.585,0.149c-3.726,0.763 -7.125,2.2 -10.197,4.312c-3.073,2.112 -5.58,4.849 -7.521,8.211l-99.396,172.159l-54.399,-31.407l99.396,-172.159c1.942,-3.362 3.059,-6.902 3.351,-10.619c0.293,-3.716 -0.162,-7.379 -1.364,-10.987c-1.203,-3.608 -3.091,-6.977 -5.664,-10.107c-2.574,-3.13 -5.756,-5.789 -9.547,-7.978c-3.791,-2.188 -7.685,-3.614 -11.682,-4.278c-3.997,-0.664 -7.859,-0.615 -11.585,0.148c-3.726,0.763 -7.125,2.201 -10.197,4.312c-3.073,2.112 -5.58,4.849 -7.521,8.211l-99.396,172.159l-0.074,-0.043l-99.396,172.159c-5.759,9.976 -13.296,18.141 -22.608,24.495c-9.313,6.355 -19.559,10.676 -30.736,12.965c-11.178,2.289 -22.811,2.448 -34.898,0.475c-12.087,-1.972 -23.754,-6.204 -35,-12.697c-10.109,-5.837 -18.917,-13.051 -26.423,-21.644c-7.507,-8.594 -13.24,-18.068 -17.201,-28.425c-10.95,1.748 -21.991,1.538 -33.123,-0.63c-11.132,-2.168 -21.752,-6.17 -31.861,-12.006c-11.246,-6.493 -20.745,-14.48 -28.497,-23.962c-7.751,-9.482 -13.43,-19.635 -17.037,-30.46c-3.606,-10.825 -4.986,-21.858 -4.14,-33.101c0.847,-11.242 4.15,-21.851 9.909,-31.826l99.396,-172.159l54.21,31.297l-99.396,172.159c-1.942,3.363 -3.027,6.921 -3.256,10.674c-0.23,3.753 0.257,7.434 1.459,11.042c1.202,3.608 3.09,6.977 5.664,10.107c2.573,3.129 5.755,5.789 9.546,7.977c3.791,2.189 7.685,3.615 11.682,4.279c3.998,0.664 7.859,0.615 11.585,-0.148c3.726,-0.763 7.125,-2.201 10.198,-4.312c3.072,-2.112 5.579,-4.849 7.52,-8.212l99.396,-172.159l54.399,31.408l-99.396,172.159c-1.941,3.362 -3.058,6.902 -3.351,10.618c-0.292,3.717 0.163,7.379 1.365,10.988c1.202,3.608 3.09,6.977 5.663,10.106c2.574,3.13 5.756,5.789 9.547,7.978c3.791,2.189 7.685,3.615 11.682,4.279c3.997,0.664 7.859,0.614 11.585,-0.149c3.726,-0.763 7.125,-2.2 10.197,-4.312c3.073,-2.111 5.58,-4.848 7.521,-8.211l99.396,-172.159" style="fill:#e670e6;"/><path d="M2103.47,1675.85l-99.396,172.159c-5.759,9.976 -13.295,18.141 -22.608,24.495c-9.313,6.355 -19.558,10.676 -30.736,12.965c-11.178,2.289 -22.81,2.448 -34.898,0.475c-12.087,-1.972 -23.753,-6.204 -35,-12.697c-10.109,-5.837 -18.916,-13.052 -26.423,-21.645c-7.506,-8.593 -13.24,-18.067 -17.201,-28.424c-10.95,1.748 -21.99,1.538 -33.122,-0.63c-11.132,-2.168 -21.753,-6.17 -31.861,-12.006c-11.247,-6.493 -20.746,-14.481 -28.497,-23.962c-7.752,-9.482 -13.431,-19.635 -17.037,-30.46c-3.607,-10.825 -4.987,-21.858 -4.14,-33.101c0.847,-11.242 4.15,-21.851 9.909,-31.826l99.396,-172.159l54.209,31.297l-99.396,172.159c-1.941,3.363 -3.027,6.921 -3.256,10.674c-0.229,3.753 0.257,7.433 1.459,11.042c1.202,3.608 3.09,6.977 5.664,10.107c2.574,3.129 5.756,5.789 9.547,7.977c3.79,2.189 7.684,3.615 11.682,4.279c3.997,0.664 7.858,0.614 11.584,-0.149c3.726,-0.762 7.125,-2.2 10.198,-4.311c3.072,-2.112 5.579,-4.849 7.521,-8.212l99.396,-172.159l54.398,31.408l-99.396,172.158c-1.941,3.363 -3.058,6.903 -3.35,10.619c-0.293,3.717 0.162,7.379 1.364,10.987c1.202,3.609 3.09,6.978 5.664,10.107c2.573,3.13 5.756,5.789 9.546,7.978c3.791,2.189 7.685,3.615 11.683,4.279c3.997,0.664 7.858,0.614 11.584,-0.149c3.726,-0.763 7.125,-2.2 10.198,-4.312c3.072,-2.111 5.579,-4.848 7.521,-8.211l99.395,-172.159l0.075,0.043l99.396,-172.159c5.759,-9.975 13.295,-18.14 22.608,-24.495c9.313,-6.354 19.558,-10.676 30.736,-12.965c11.178,-2.289 22.81,-2.447 34.898,-0.475c12.087,1.972 23.753,6.205 35,12.698c10.109,5.836 18.916,13.051 26.423,21.644c7.506,8.593 13.24,18.068 17.201,28.425c10.95,-1.748 21.99,-1.539 33.122,0.629c11.132,2.168 21.753,6.17 31.861,12.007c11.247,6.493 20.746,14.48 28.497,23.962c7.752,9.481 13.431,19.635 17.037,30.459c3.607,10.825 4.987,21.859 4.14,33.101c-0.847,11.243 -4.15,21.851 -9.909,31.827l-99.396,172.159l-54.209,-31.298l99.396,-172.159c1.941,-3.362 3.027,-6.92 3.256,-10.673c0.229,-3.753 -0.257,-7.434 -1.459,-11.042c-1.202,-3.609 -3.09,-6.977 -5.664,-10.107c-2.574,-3.13 -5.756,-5.789 -9.547,-7.978c-3.79,-2.188 -7.684,-3.615 -11.682,-4.279c-3.997,-0.664 -7.858,-0.614 -11.584,0.149c-3.726,0.763 -7.125,2.2 -10.198,4.312c-3.072,2.112 -5.579,4.849 -7.521,8.211l-99.396,172.159l-54.398,-31.407l99.396,-172.159c1.941,-3.363 3.058,-6.902 3.35,-10.619c0.293,-3.716 -0.162,-7.379 -1.364,-10.987c-1.202,-3.608 -3.09,-6.977 -5.664,-10.107c-2.573,-3.13 -5.756,-5.789 -9.546,-7.978c-3.791,-2.188 -7.685,-3.615 -11.683,-4.278c-3.997,-0.664 -7.858,-0.615 -11.584,0.148c-3.726,0.763 -7.125,2.2 -10.198,4.312c-3.072,2.112 -5.579,4.849 -7.521,8.211l-99.396,172.159" style="fill:#e670e6;"/><path d="M703.743,1603.65l99.396,-172.159c5.76,-9.975 13.296,-18.14 22.609,-24.494c9.312,-6.355 19.558,-10.677 30.736,-12.966c11.177,-2.289 22.81,-2.447 34.897,-0.475c12.087,1.972 23.754,6.205 35,12.698c10.109,5.836 18.917,13.051 26.423,21.644c7.507,8.593 13.24,18.068 17.201,28.425c10.95,-1.748 21.991,-1.538 33.123,0.629c11.132,2.168 21.752,6.17 31.861,12.007c11.246,6.493 20.745,14.48 28.497,23.962c7.751,9.482 13.43,19.635 17.037,30.459c3.606,10.825 4.986,21.859 4.14,33.101c-0.847,11.243 -4.15,21.852 -9.909,31.827l-99.396,172.159l-54.209,-31.298l99.396,-172.159c1.941,-3.362 3.026,-6.92 3.255,-10.673c0.23,-3.753 -0.257,-7.434 -1.459,-11.042c-1.202,-3.608 -3.09,-6.977 -5.663,-10.107c-2.574,-3.13 -5.756,-5.789 -9.547,-7.978c-3.791,-2.188 -7.685,-3.615 -11.682,-4.279c-3.997,-0.663 -7.859,-0.614 -11.585,0.149c-3.726,0.763 -7.125,2.2 -10.197,4.312c-3.073,2.112 -5.58,4.849 -7.521,8.211l-99.396,172.159l-54.399,-31.407l99.396,-172.159c1.941,-3.362 3.058,-6.902 3.351,-10.619c0.292,-3.716 -0.162,-7.379 -1.365,-10.987c-1.202,-3.608 -3.09,-6.977 -5.663,-10.107c-2.574,-3.13 -5.756,-5.789 -9.547,-7.977c-3.791,-2.189 -7.685,-3.615 -11.682,-4.279c-3.997,-0.664 -7.859,-0.615 -11.585,0.148c-3.726,0.763 -7.125,2.201 -10.197,4.312c-3.073,2.112 -5.58,4.849 -7.521,8.211l-99.396,172.159l-0.074,-0.043l-99.396,172.159c-5.76,9.976 -13.296,18.141 -22.609,24.495c-9.313,6.355 -19.558,10.676 -30.736,12.965c-11.177,2.289 -22.81,2.448 -34.897,0.476c-12.087,-1.973 -23.754,-6.205 -35,-12.698c-10.109,-5.837 -18.917,-13.051 -26.423,-21.644c-7.507,-8.593 -13.241,-18.068 -17.201,-28.425c-10.95,1.748 -21.991,1.538 -33.123,-0.63c-11.132,-2.168 -21.752,-6.17 -31.861,-12.006c-11.246,-6.493 -20.745,-14.48 -28.497,-23.962c-7.751,-9.482 -13.43,-19.635 -17.037,-30.46c-3.606,-10.824 -4.986,-21.858 -4.14,-33.101c0.847,-11.242 4.15,-21.851 9.909,-31.826l99.396,-172.159l54.209,31.297l-99.396,172.159c-1.941,3.363 -3.026,6.921 -3.256,10.674c-0.229,3.753 0.258,7.434 1.46,11.042c1.202,3.608 3.09,6.977 5.663,10.107c2.574,3.13 5.756,5.789 9.547,7.977c3.791,2.189 7.685,3.615 11.682,4.279c3.997,0.664 7.859,0.615 11.585,-0.148c3.726,-0.763 7.125,-2.201 10.197,-4.312c3.073,-2.112 5.58,-4.849 7.521,-8.211l99.396,-172.159l54.399,31.407l-99.396,172.159c-1.942,3.362 -3.058,6.902 -3.351,10.618c-0.292,3.717 0.162,7.379 1.365,10.988c1.202,3.608 3.09,6.977 5.663,10.107c2.574,3.129 5.756,5.789 9.547,7.977c3.791,2.189 7.685,3.615 11.682,4.279c3.997,0.664 7.859,0.614 11.585,-0.149c3.726,-0.763 7.125,-2.2 10.197,-4.312c3.073,-2.111 5.58,-4.848 7.521,-8.211l99.396,-172.159" style="fill:#e670e6;"/><path d="M1472.57,1265.68l-99.396,172.159c-5.759,9.975 -13.295,18.14 -22.608,24.495c-9.313,6.354 -19.558,10.676 -30.736,12.965c-11.178,2.289 -22.81,2.447 -34.897,0.475c-12.088,-1.972 -23.754,-6.205 -35,-12.698c-10.109,-5.836 -18.917,-13.051 -26.424,-21.644c-7.506,-8.593 -13.24,-18.068 -17.201,-28.424c-10.95,1.748 -21.99,1.538 -33.122,-0.63c-11.132,-2.168 -21.752,-6.17 -31.861,-12.006c-11.247,-6.493 -20.745,-14.481 -28.497,-23.962c-7.752,-9.482 -13.431,-19.635 -17.037,-30.46c-3.607,-10.825 -4.987,-21.858 -4.14,-33.101c0.847,-11.242 4.15,-21.851 9.909,-31.827l99.396,-172.158l54.209,31.297l-99.396,172.159c-1.941,3.363 -3.027,6.92 -3.256,10.674c-0.229,3.753 0.257,7.433 1.459,11.042c1.203,3.608 3.091,6.977 5.664,10.107c2.574,3.129 5.756,5.788 9.547,7.977c3.791,2.189 7.685,3.615 11.682,4.279c3.997,0.664 7.859,0.614 11.585,-0.149c3.725,-0.763 7.125,-2.2 10.197,-4.312c3.073,-2.111 5.579,-4.848 7.521,-8.211l99.396,-172.159l54.399,31.407l-99.396,172.159c-1.942,3.363 -3.059,6.902 -3.351,10.619c-0.293,3.717 0.162,7.379 1.364,10.987c1.202,3.609 3.09,6.978 5.664,10.107c2.574,3.13 5.756,5.789 9.547,7.978c3.79,2.189 7.684,3.615 11.682,4.279c3.997,0.664 7.859,0.614 11.584,-0.149c3.726,-0.763 7.126,-2.2 10.198,-4.312c3.072,-2.111 5.579,-4.848 7.521,-8.211l99.396,-172.159l0.074,0.043l99.396,-172.159c5.759,-9.975 13.295,-18.14 22.608,-24.495c9.313,-6.354 19.559,-10.676 30.736,-12.965c11.178,-2.289 22.811,-2.447 34.898,-0.475c12.087,1.972 23.754,6.205 35,12.698c10.109,5.836 18.916,13.051 26.423,21.644c7.506,8.593 13.24,18.068 17.201,28.425c10.95,-1.749 21.991,-1.539 33.122,0.629c11.132,2.168 21.753,6.17 31.862,12.007c11.246,6.492 20.745,14.48 28.496,23.962c7.752,9.481 13.431,19.635 17.038,30.459c3.606,10.825 4.986,21.859 4.139,33.101c-0.846,11.242 -4.149,21.851 -9.909,31.827l-99.396,172.159l-54.209,-31.298l99.396,-172.159c1.942,-3.362 3.027,-6.92 3.256,-10.673c0.23,-3.753 -0.257,-7.434 -1.459,-11.042c-1.202,-3.609 -3.09,-6.978 -5.664,-10.107c-2.573,-3.13 -5.756,-5.789 -9.546,-7.978c-3.791,-2.189 -7.685,-3.615 -11.683,-4.279c-3.997,-0.664 -7.858,-0.614 -11.584,0.149c-3.726,0.763 -7.125,2.2 -10.198,4.312c-3.072,2.111 -5.579,4.848 -7.52,8.211l-99.396,172.159l-54.399,-31.407l99.396,-172.159c1.941,-3.363 3.058,-6.902 3.351,-10.619c0.292,-3.716 -0.163,-7.379 -1.365,-10.987c-1.202,-3.608 -3.09,-6.977 -5.664,-10.107c-2.573,-3.13 -5.755,-5.789 -9.546,-7.978c-3.791,-2.188 -7.685,-3.615 -11.682,-4.279c-3.998,-0.663 -7.859,-0.614 -11.585,0.149c-3.726,0.763 -7.125,2.2 -10.198,4.312c-3.072,2.112 -5.579,4.849 -7.52,8.211l-99.396,172.159" style="fill:#e670e6;"/><path d="M840.114,858.075l-99.396,172.159c-5.76,9.975 -13.296,18.14 -22.609,24.495c-9.313,6.354 -19.558,10.676 -30.736,12.965c-11.177,2.289 -22.81,2.447 -34.897,0.475c-12.087,-1.972 -23.754,-6.205 -35,-12.698c-10.109,-5.836 -18.917,-13.051 -26.423,-21.644c-7.507,-8.593 -13.241,-18.068 -17.201,-28.424c-10.95,1.748 -21.991,1.538 -33.123,-0.63c-11.132,-2.168 -21.752,-6.17 -31.861,-12.006c-11.246,-6.493 -20.745,-14.481 -28.497,-23.962c-7.751,-9.482 -13.43,-19.635 -17.037,-30.46c-3.606,-10.825 -4.986,-21.858 -4.14,-33.101c0.847,-11.242 4.15,-21.851 9.909,-31.827l99.396,-172.159l54.209,31.298l-99.396,172.159c-1.941,3.363 -3.026,6.92 -3.256,10.673c-0.229,3.754 0.258,7.434 1.46,11.043c1.202,3.608 3.09,6.977 5.663,10.106c2.574,3.13 5.756,5.789 9.547,7.978c3.791,2.189 7.685,3.615 11.682,4.279c3.997,0.664 7.859,0.614 11.585,-0.149c3.726,-0.763 7.125,-2.2 10.197,-4.312c3.073,-2.111 5.58,-4.848 7.521,-8.211l99.396,-172.159l54.399,31.407l-99.396,172.159c-1.942,3.363 -3.058,6.902 -3.351,10.619c-0.292,3.717 0.162,7.379 1.365,10.987c1.202,3.609 3.09,6.978 5.663,10.107c2.574,3.13 5.756,5.789 9.547,7.978c3.791,2.188 7.685,3.615 11.682,4.279c3.997,0.664 7.859,0.614 11.585,-0.149c3.726,-0.763 7.125,-2.2 10.197,-4.312c3.073,-2.112 5.58,-4.849 7.521,-8.211l99.396,-172.159l0.074,0.043l99.396,-172.159c5.76,-9.975 13.296,-18.14 22.609,-24.495c9.312,-6.354 19.558,-10.676 30.736,-12.965c11.177,-2.289 22.81,-2.447 34.897,-0.475c12.087,1.972 23.754,6.205 35,12.698c10.109,5.836 18.917,13.051 26.423,21.644c7.507,8.593 13.24,18.068 17.201,28.424c10.95,-1.748 21.991,-1.538 33.123,0.63c11.132,2.168 21.752,6.17 31.861,12.006c11.246,6.493 20.745,14.481 28.497,23.962c7.751,9.482 13.43,19.635 17.037,30.46c3.606,10.825 4.986,21.858 4.14,33.101c-0.847,11.242 -4.15,21.851 -9.909,31.827l-99.396,172.159l-54.209,-31.298l99.396,-172.159c1.941,-3.363 3.026,-6.92 3.256,-10.673c0.229,-3.754 -0.258,-7.434 -1.46,-11.042c-1.202,-3.609 -3.09,-6.978 -5.663,-10.107c-2.574,-3.13 -5.756,-5.789 -9.547,-7.978c-3.791,-2.189 -7.685,-3.615 -11.682,-4.279c-3.997,-0.664 -7.859,-0.614 -11.585,0.149c-3.726,0.763 -7.125,2.2 -10.197,4.312c-3.073,2.111 -5.58,4.848 -7.521,8.211l-99.396,172.159l-54.399,-31.407l99.396,-172.159c1.941,-3.363 3.058,-6.902 3.351,-10.619c0.292,-3.717 -0.162,-7.379 -1.365,-10.987c-1.202,-3.608 -3.09,-6.977 -5.663,-10.107c-2.574,-3.13 -5.756,-5.789 -9.547,-7.978c-3.791,-2.188 -7.685,-3.615 -11.682,-4.279c-3.997,-0.664 -7.859,-0.614 -11.585,0.149c-3.726,0.763 -7.125,2.2 -10.197,4.312c-3.073,2.112 -5.58,4.849 -7.521,8.211l-99.396,172.159" style="fill:#e670e6;"/><path d="M209.207,447.91l-99.396,172.159c-5.759,9.975 -13.296,18.14 -22.608,24.495c-9.313,6.354 -19.559,10.676 -30.736,12.965c-11.178,2.289 -22.811,2.447 -34.898,0.475c-12.087,-1.972 -23.754,-6.205 -35,-12.698c-10.109,-5.836 -18.917,-13.051 -26.423,-21.644c-7.507,-8.593 -13.24,-18.068 -17.201,-28.425c-10.95,1.749 -21.991,1.539 -33.123,-0.629c-11.132,-2.168 -21.752,-6.17 -31.861,-12.006c-11.246,-6.493 -20.745,-14.481 -28.496,-23.963c-7.752,-9.481 -13.431,-19.635 -17.038,-30.459c-3.606,-10.825 -4.986,-21.859 -4.14,-33.101c0.847,-11.242 4.15,-21.851 9.909,-31.827l99.396,-172.159l54.21,31.298l-99.396,172.159c-1.942,3.362 -3.027,6.92 -3.256,10.673c-0.23,3.753 0.257,7.434 1.459,11.042c1.202,3.609 3.09,6.978 5.664,10.107c2.573,3.13 5.755,5.789 9.546,7.978c3.791,2.189 7.685,3.615 11.682,4.279c3.998,0.664 7.859,0.614 11.585,-0.149c3.726,-0.763 7.125,-2.2 10.198,-4.312c3.072,-2.111 5.579,-4.848 7.52,-8.211l99.396,-172.159l54.399,31.407l-99.396,172.159c-1.941,3.363 -3.058,6.902 -3.351,10.619c-0.292,3.716 0.163,7.379 1.365,10.987c1.202,3.608 3.09,6.977 5.663,10.107c2.574,3.13 5.756,5.789 9.547,7.978c3.791,2.188 7.685,3.615 11.682,4.279c3.997,0.663 7.859,0.614 11.585,-0.149c3.726,-0.763 7.125,-2.2 10.197,-4.312c3.073,-2.112 5.58,-4.849 7.521,-8.211l99.396,-172.159l0.074,0.043l99.396,-172.159c5.76,-9.975 13.296,-18.14 22.609,-24.495c9.313,-6.354 19.558,-10.676 30.736,-12.965c11.177,-2.289 22.81,-2.447 34.897,-0.475c12.087,1.972 23.754,6.205 35,12.698c10.109,5.836 18.917,13.051 26.423,21.644c7.507,8.593 13.241,18.068 17.202,28.424c10.949,-1.748 21.99,-1.538 33.122,0.63c11.132,2.168 21.752,6.17 31.861,12.006c11.246,6.493 20.745,14.481 28.497,23.962c7.751,9.482 13.43,19.635 17.037,30.46c3.607,10.825 4.986,21.858 4.14,33.101c-0.847,11.242 -4.15,21.851 -9.909,31.827l-99.396,172.158l-54.209,-31.297l99.396,-172.159c1.941,-3.363 3.026,-6.92 3.256,-10.674c0.229,-3.753 -0.257,-7.433 -1.46,-11.042c-1.202,-3.608 -3.09,-6.977 -5.663,-10.107c-2.574,-3.129 -5.756,-5.788 -9.547,-7.977c-3.791,-2.189 -7.685,-3.615 -11.682,-4.279c-3.997,-0.664 -7.859,-0.614 -11.585,0.149c-3.726,0.763 -7.125,2.2 -10.197,4.312c-3.073,2.111 -5.58,4.848 -7.521,8.211l-99.396,172.159l-54.399,-31.407l99.396,-172.159c1.942,-3.363 3.059,-6.902 3.351,-10.619c0.293,-3.717 -0.162,-7.379 -1.364,-10.987c-1.203,-3.609 -3.091,-6.978 -5.664,-10.107c-2.574,-3.13 -5.756,-5.789 -9.547,-7.978c-3.791,-2.189 -7.685,-3.615 -11.682,-4.279c-3.997,-0.664 -7.859,-0.614 -11.585,0.149c-3.726,0.763 -7.125,2.2 -10.197,4.312c-3.073,2.111 -5.58,4.849 -7.521,8.211l-99.396,172.159" style="fill:#e670e6;"/></g></g></svg>