<?xml version="1.0" encoding="UTF-8" standalone="no"?><!DOCTYPE svg PUBLIC "-//W3C//DTD SVG 1.1//EN" "http://www.w3.org/Graphics/SVG/1.1/DTD/svg11.dtd"><svg width="100%" height="100%" viewBox="0 0 847 714" version="1.1" xmlns="http://www.w3.org/2000/svg" xmlns:xlink="http://www.w3.org/1999/xlink" xml:space="preserve" xmlns:serif="http://www.serif.com/" style="fill-rule:evenodd;clip-rule:evenodd;stroke-miterlimit:10;"><path d="M93.483,679.876c0,22.469 -13.356,30.314 -29.833,30.314c-0.382,0 -0.763,-0.004 -1.144,-0.013c-0.763,-0.016 -1.519,-0.053 -2.266,-0.104c-14.871,-1.052 -26.424,-9.301 -26.424,-30.197c0,-21.625 27.634,-48.912 29.71,-50.932l0.004,-0.003c0.08,-0.079 0.12,-0.117 0.12,-0.117c0,0 29.833,28.583 29.833,51.052Z" style="fill:#c49d76;fill-opacity:0.7;fill-rule:nonzero;"/><path d="M62.563,706.752l10.911,-15.246l-10.939,16.921l-0.029,1.75c-0.763,-0.016 -1.519,-0.053 -2.266,-0.104l1.176,-22.479l-0.009,-0.175l0.02,-0.032l0.11,-2.123l-10.966,-16.963l11.001,15.37l0.025,0.451l0.889,-16.984l-9.388,-17.528l9.503,14.547l0.925,-35.213l0.004,-0.12l0,0.116l-0.155,27.768l9.347,-11.008l-9.385,13.4l-0.247,15.206l8.727,-14.594l-8.764,16.832l-0.138,8.454l12.67,-20.313l-12.717,23.263l-0.305,18.804Z" style="fill:#3f3d56;fill-rule:nonzero;"/><path d="M733.091,394.388c0,176.179 -79.992,315.164 -178.5,319c-128.463,5.004 -296.357,-123.086 -178.5,-319c90.818,-150.967 79.917,-319 178.5,-319c98.583,0 178.5,142.821 178.5,319Z" style="fill:#afa6c9;fill-opacity:0.4;fill-rule:nonzero;"/><rect x="374.947" y="488.049" width="254.514" height="221.025" style="fill:#f09e4c;"/><path d="M0,709.074l846.02,0" style="fill:none;fill-rule:nonzero;stroke:#3f3d56;stroke-width:2px;"/><path d="M558.717,0c-13.367,0.001 -24.366,11.001 -24.366,24.368c0,9.658 5.741,18.443 14.587,22.32c-0.102,-1.875 0.04,-3.754 0.424,-5.592c0.468,-1.979 3.133,-13.281 3.133,-13.281c-0.532,-1.214 -0.799,-2.526 -0.783,-3.851c0,-3.612 2.089,-6.309 4.699,-6.309c2.219,0 3.285,1.664 3.285,3.655c0,2.23 -1.425,5.558 -2.154,8.648c-0.076,0.302 -0.115,0.614 -0.115,0.926c0,2.067 1.7,3.767 3.767,3.767c0.066,0 0.133,-0.002 0.199,-0.005c4.612,0 7.723,-5.929 7.723,-12.956c0,-5.341 -3.6,-9.333 -10.138,-9.333c-0.151,-0.006 -0.302,-0.009 -0.453,-0.009c-6.334,0 -11.546,5.212 -11.546,11.546c0,0.045 0.001,0.09 0.001,0.135c-0.072,1.736 0.502,3.438 1.61,4.775c0.398,0.329 0.539,0.881 0.348,1.36c-0.119,0.446 -0.381,1.523 -0.5,1.958c-0.064,0.405 -0.417,0.707 -0.827,0.707c-0.137,0 -0.271,-0.034 -0.392,-0.098c-3.404,-1.392 -4.992,-5.112 -4.992,-9.311c0,-6.918 5.841,-15.218 17.415,-15.218c9.301,0 15.425,6.733 15.425,13.956c0,9.562 -5.32,16.698 -13.152,16.698c-2.632,0 -5.101,-1.425 -5.95,-3.035c0,0 -1.414,5.613 -1.718,6.7c-0.563,1.849 -1.387,3.607 -2.448,5.222c2.241,0.662 4.566,0.998 6.903,0.998c13.37,0 24.371,-11.001 24.371,-24.371c0,-13.363 -10.992,-24.362 -24.356,-24.37l0,0Z" style="fill:#9e85ea;fill-rule:nonzero;"/><path d="M799.277,176.223c-1.923,0.85 -3.961,1.411 -6.049,1.664c2.201,-1.316 3.849,-3.389 4.634,-5.83c-2.066,1.23 -4.329,2.095 -6.689,2.556c-1.99,-2.129 -4.778,-3.339 -7.692,-3.339c-5.776,0 -10.529,4.752 -10.529,10.528c0,0.004 0,0.008 0,0.012c-0.004,0.809 0.088,1.616 0.272,2.404c-8.47,-0.419 -16.373,-4.43 -21.712,-11.019c-2.781,4.793 -1.337,11.002 3.274,14.076c-1.679,-0.042 -3.322,-0.493 -4.786,-1.316l0,0.13c-0.001,4.998 3.553,9.344 8.452,10.334c-0.904,0.245 -1.837,0.37 -2.774,0.37c-0.665,0.001 -1.328,-0.064 -1.979,-0.196c1.375,4.283 5.346,7.236 9.844,7.321c-3.73,2.932 -8.342,4.523 -13.086,4.514c-0.84,-0.001 -1.679,-0.052 -2.513,-0.152c4.796,3.121 10.399,4.777 16.121,4.764c19.395,0 29.99,-16.066 29.99,-30.001c0,-0.456 -0.011,-0.913 -0.032,-1.359c2.061,-1.494 3.84,-3.343 5.254,-5.461Z" style="fill:#9e85ea;fill-rule:nonzero;"/><path d="M393.922,31.016l-37.158,0c-1.265,0.001 -2.306,1.042 -2.306,2.307l0,37.158c0,1.265 1.041,2.306 2.306,2.306l18.579,0l0,-16.534l-4.993,0l0,-6.092l4.993,0l0,-4.503c0,-5.395 3.742,-8.332 8.561,-8.332c2.306,0 4.786,0.174 5.363,0.25l0,5.635l-3.84,0c-2.622,0 -3.122,1.24 -3.122,3.067l0,3.883l6.244,0l-0.816,6.092l-5.428,0l0,16.534l11.618,0c1.264,0 2.305,-1.041 2.306,-2.306l0,-37.158c-0.001,-1.265 -1.042,-2.306 -2.307,-2.307Z" style="fill:#9e85ea;fill-rule:nonzero;"/><path d="M398.608,185.692c4.768,0.014 8.688,3.934 8.702,8.703l0,17.404c-0.014,4.769 -3.934,8.688 -8.702,8.702l-17.405,0c-4.768,-0.014 -8.688,-3.933 -8.702,-8.702l0,-17.404c0.014,-4.769 3.934,-8.689 8.702,-8.703l17.405,0m0,-3.481l-17.405,0c-6.676,0.02 -12.163,5.508 -12.183,12.184l0,17.404c0.02,6.676 5.507,12.164 12.183,12.183l17.405,0c6.676,-0.019 12.163,-5.507 12.183,-12.183l0,-17.404c-0.02,-6.676 -5.507,-12.164 -12.183,-12.184Z" style="fill:#9e85ea;fill-rule:nonzero;"/><path d="M401.218,194.395c0,0 0,0 0,0c-1.432,0 -2.61,-1.179 -2.61,-2.611c0,-1.432 1.178,-2.611 2.61,-2.611c1.433,0 2.611,1.179 2.611,2.611c0,0.002 0,0.004 0,0.006c0,1.429 -1.176,2.605 -2.604,2.605c-0.002,0 -0.004,0 -0.007,0Zm-11.312,1.74c3.819,0 6.961,3.143 6.961,6.962c0,3.819 -3.142,6.962 -6.961,6.962c-3.82,0 -6.962,-3.143 -6.962,-6.962c0,0 0,0 0,0c0.003,-3.818 3.144,-6.958 6.962,-6.962m0,-3.481c0,0 -0.001,0 -0.001,0c-5.728,0 -10.442,4.714 -10.442,10.443c0,5.729 4.714,10.443 10.442,10.443c5.729,0 10.443,-4.714 10.443,-10.443c0,0 0,0 0,0c-0.001,-5.728 -4.714,-10.441 -10.442,-10.443Z" style="fill:#9e85ea;fill-rule:nonzero;"/><path d="M702.584,10.513l-34.853,0c-0.054,-0.003 -0.109,-0.004 -0.164,-0.004c-1.812,0 -3.324,1.446 -3.404,3.256l0,34.929c0.05,1.94 1.629,3.523 3.568,3.579l34.842,0c1.896,-0.075 3.401,-1.683 3.35,-3.579l0,-34.929c0.001,-0.018 0.001,-0.036 0.001,-0.053c0,-1.757 -1.446,-3.202 -3.202,-3.202c-0.046,0 -0.092,0.001 -0.138,0.003Zm-25.476,34.809l-5.983,0l0,-18.601l5.983,0l0,18.601Zm-2.785,-21.43l-0.043,0c-1.776,-0.012 -3.231,-1.476 -3.231,-3.252c0,-1.785 1.468,-3.253 3.253,-3.253c1.784,0 3.252,1.468 3.252,3.253c0,1.776 -1.454,3.24 -3.231,3.252Zm24.65,21.43l-5.983,0l0,-10.171c0,-2.437 -0.871,-4.101 -3.035,-4.101c-1.384,0.012 -2.618,0.9 -3.068,2.208c-0.159,0.473 -0.229,0.971 -0.206,1.469l0,10.595l-5.983,0l0,-18.601l5.983,0l0,2.589c1.107,-1.918 3.182,-3.08 5.395,-3.024c3.927,0 6.897,2.588 6.897,8.169l0,10.867Z" style="fill:#9e85ea;fill-rule:nonzero;"/><path d="M537.446,268.119c0,0 42.347,1.151 49.34,3.695c6.994,2.545 10.122,20.74 10.122,20.74l-32.88,10.334l-24.591,-1.393l-18.508,1.308l10.334,-27.065l6.183,-7.619Z" style="fill:#2f2e41;fill-rule:nonzero;"/><path d="M539.273,254.223c0,0 2.786,10.761 -3.397,18.38c-6.184,7.62 26.582,34.77 26.582,34.77l17.285,-2.971c0,0 -3.81,-33.064 1.308,-41.437c5.117,-8.372 -41.778,-8.742 -41.778,-8.742Z" style="fill:#9f616a;fill-rule:nonzero;"/><path d="M539.273,254.223c0,0 2.786,10.761 -3.397,18.38c-6.184,7.62 26.582,34.77 26.582,34.77l17.285,-2.971c0,0 -3.81,-33.064 1.308,-41.437c5.117,-8.372 -41.778,-8.742 -41.778,-8.742Z" style="fill-opacity:0.1;fill-rule:nonzero;"/><path d="M654.23,568.843l-38.138,50.577l26.027,15.196l35.822,-58.609l-23.711,-7.164Z" style="fill:#9f616a;fill-rule:nonzero;"/><path d="M627.478,620.273c0,0 -14.045,-16.319 -13.419,-12.68c0.625,3.639 -9.993,34.5 -0.114,37.485c9.88,2.985 94.601,10.902 95.766,1.336c1.166,-9.567 -25.274,-16.262 -25.274,-16.262c0,0 -15.707,-15.096 -19.19,-13.561c-3.483,1.535 -37.769,3.682 -37.769,3.682Z" style="fill:#2f2e41;fill-rule:nonzero;"/><path d="M645.673,617.145l30.463,51.899l23,-13.319l-30.719,-42.489l-22.744,3.909Z" style="fill:#9f616a;fill-rule:nonzero;"/><path d="M693.762,493.674l-9.041,12.794c0,0 -43.099,59.859 -38.522,64.692c4.577,4.833 23.639,23.099 33.334,19.56c9.695,-3.54 44.137,-64.721 44.137,-64.721l-8.984,-35.921l-20.924,3.596Z" style="fill:#2f2e41;fill-rule:nonzero;"/><path d="M508.1,481.563c0,0 9.652,18.011 34.116,24.109c24.464,6.098 50.023,18.564 50.932,18.408c0.91,-0.156 3.483,-1.535 4.109,2.104c0.625,3.639 7.335,9.979 7.335,9.979c0,0 27.022,91.828 37.343,91.928c10.32,0.099 31.528,-7.292 31.969,-10.178c0.441,-2.886 -31.6,-96.662 -31.913,-98.481l-3.753,-21.834c0,0 42.375,6.766 46.327,7.96c3.952,1.194 39.105,20.441 39.105,20.441c0,0 35.836,-25.829 2.317,-51.913c-33.519,-26.085 -91.132,-45.218 -91.132,-45.218l-20.669,-5.814l-18.013,-1.075l-2.652,-10.171l-42.662,2.462l-44.522,18.891l1.763,48.402Z" style="fill:#2f2e41;fill-rule:nonzero;"/><circle cx="564.405" cy="242.411" r="33.232" style="fill:#9f616a;"/><path d="M534.34,269.121l3.997,-0.687c0,0 7.219,27.795 29.551,32.386c0,0 11.019,-13.2 10.549,-15.428c-0.471,-2.227 8.726,-14.111 13.616,-7.458c4.89,6.652 -1.194,123.841 2.915,125.944c4.108,2.104 12.921,4.336 5.828,12.111c-7.094,7.776 -35.268,18.238 -41.508,14.628c-6.24,-3.611 -18.991,-34.201 -24.507,-44.493c-5.515,-10.292 -14.343,-45.303 -14.343,-45.303c0,0 -11.272,-38.338 -4.335,-47.023c6.937,-8.685 18.237,-24.677 18.237,-24.677Z" style="fill:#d0cde1;fill-rule:nonzero;"/><path d="M566.145,413.391c-0.743,8.163 -2.015,16.27 -3.807,24.268c-1.63,6.508 -3.527,10.438 -5.693,10.27c-5.525,-0.413 -8.037,7.692 -9.332,17.035c-1.384,9.912 -1.384,21.22 -2.143,25.217c-1.005,5.28 -7.435,9.31 -20.283,8.126c-7.652,-0.87 -15.162,-2.712 -22.348,-5.481c-17.347,-6.307 -16.834,-57.455 -13.932,-95.409c1.775,-23.263 4.443,-41.581 4.443,-41.581c0,0 -5.269,-15.718 -6.954,-26.49c-0.336,-1.965 -0.504,-3.956 -0.503,-5.95c0.257,-9.41 17.437,-34.839 27.818,-50.679c10.393,-15.84 24.57,-4.22 24.57,-4.22l-4.934,14.891c0,0 7.646,11.8 7.702,23.029c0.056,11.23 18.307,19.335 24.86,24.771c4.119,3.416 4.019,49.016 0.536,82.203Z" style="fill:#2f2e41;fill-rule:nonzero;"/><path d="M580.575,273.819c0,0 1.197,1.415 6.681,0.725c6.576,-0.829 15.618,1.447 17.719,7.725c3.852,11.514 14.712,58.353 14.712,58.353c0,0 4.521,53.547 6.553,65.374c2.033,11.827 1.024,22.304 3.028,28.516c2.005,6.211 -19.787,-11.586 -27.818,-9.269c-8.032,2.317 -13.192,-27.704 -12.183,-38.181c1.01,-10.476 1.862,-21.863 -0.924,-32.623c-2.786,-10.761 2.154,-39.241 1.969,-45.765c-0.185,-6.525 -17.71,-22.969 -9.737,-34.855Z" style="fill:#2f2e41;fill-rule:nonzero;"/><path d="M604.088,440.244c0,0 35.186,19.196 38.553,46.518c3.368,27.322 -47.062,-26.455 -47.062,-26.455l8.509,-20.063Z" style="fill:#9f616a;fill-rule:nonzero;"/><path d="M624.174,420.869c0,0 10.781,54.345 27.577,51.458c16.795,-2.886 -9.382,-54.585 -9.382,-54.585l-18.195,3.127Z" style="fill:#9f616a;fill-rule:nonzero;"/><path d="M681.694,657.786c0,0 -8.6,9.908 -10.733,8.401c-2.132,-1.507 -7.036,19.005 -2.615,22.929c4.421,3.923 21.45,10.362 21.635,16.887c0.185,6.525 45.858,5.231 47.492,-1.606c1.635,-6.838 -5.728,-22.432 -10.903,-25.289c-5.174,-2.857 -24.306,-29.154 -24.306,-29.154c0,0 -14.984,2.188 -20.57,7.832Z" style="fill:#2f2e41;fill-rule:nonzero;"/><path d="M598.484,473.481c-8.16,-5.76 -30.944,-7.189 -51.171,-8.517c-8.875,-0.569 -17.258,-1.128 -23.699,-2.032c-6.206,-0.859 -11.788,-6.53 -16.744,-14.98c-7.513,-12.804 -13.585,-32.004 -18.263,-50.535c1.775,-23.263 4.443,-41.581 4.443,-41.581c0,0 -5.269,-15.718 -6.954,-26.49c1.188,-1.654 2.719,-3.032 4.487,-4.041c21.455,-9.209 41.939,81.422 44.54,95.644c0.045,0.234 0.078,0.457 0.112,0.647c1.261,7.323 14.891,13.585 27.103,16.063c7.524,1.53 14.523,1.63 17.749,-0.357c8.473,-5.202 34.527,15.617 36.503,16.209c1.976,0.603 -6.385,28.264 -18.106,19.97Z" style="fill-opacity:0.1;fill-rule:nonzero;"/><path d="M490.587,319.726c0,0 -15.594,7.363 -8.742,41.778c6.851,34.414 20.654,92.923 41.764,95.851c21.109,2.928 63.142,2.26 74.87,10.548c11.727,8.287 20.086,-19.375 18.11,-19.973c-1.976,-0.597 -28.032,-21.407 -36.504,-16.205c-8.472,5.203 -42.816,-3.88 -44.849,-15.707c-2.032,-11.827 -22.843,-105.66 -44.649,-96.292Z" style="fill:#2f2e41;fill-rule:nonzero;"/><path d="M602.956,303.222l17.138,39.767c0,0 1.725,-0.861 3.73,5.351c2.004,6.212 2.942,11.671 6.453,15.751c3.511,4.079 19.134,62.275 19.603,65.005c0.469,2.729 -21.577,12.138 -26.503,4.555c-4.926,-7.583 -20.421,-130.429 -20.421,-130.429Z" style="fill:#2f2e41;fill-rule:nonzero;"/><path d="M545.498,241.948c1.274,-0.34 1.461,-2.031 1.504,-3.348c0.228,-7.056 4.477,-14.295 11.23,-16.349c2.592,-0.711 5.305,-0.86 7.959,-0.438c3.788,0.504 7.446,1.725 10.778,3.596c1.759,0.988 3.485,2.18 5.48,2.482c1.318,0.199 7.023,1.858 8.335,2.091c2.885,0.514 5.566,3.095 8.334,2.134c2.648,-0.919 3.234,-4.348 3.298,-7.15c0.146,-6.385 -4.7,-15.221 -8.97,-19.971c-3.239,-3.604 -8.117,-5.268 -12.886,-6.133c-5.57,-0.895 -11.215,-1.239 -16.852,-1.025c-7.631,0.136 -15.474,0.725 -22.355,4.027c-6.881,3.301 -12.661,9.873 -12.991,17.498c-0.069,1.589 0.095,3.184 -0.039,4.768c-0.325,3.865 -2.378,7.356 -3.34,11.113c-1.391,5.572 -0.359,11.48 2.839,16.25c2.554,3.759 6.568,7.158 6.42,11.699l5.538,-5.737c1.698,-1.296 2.264,-3.623 1.352,-5.555l-1.96,-7.646c-0.504,-1.364 -0.563,-2.854 -0.17,-4.254c2.102,-5.192 4.373,2.515 6.496,1.948Z" style="fill:#2f2e41;fill-rule:nonzero;"/><path d="M292.583,468.934c0,105.949 -62.985,142.942 -140.681,142.942c-77.696,0 -140.681,-36.993 -140.681,-142.942c0,-105.949 140.681,-240.732 140.681,-240.732c0,0 140.681,134.783 140.681,240.732Z" style="fill:#c49d76;fill-rule:nonzero;"/><path d="M146.777,595.669l1.441,-88.669l59.961,-109.697l-59.735,95.787l0.647,-39.87l41.326,-79.364l-41.154,68.814l1.165,-71.707l44.252,-63.184l-44.069,51.908l0.728,-131.485l-4.574,174.062l0.375,-7.18l-44.991,-68.867l44.27,82.651l-4.192,80.085l-0.125,-2.126l-51.867,-72.472l51.71,79.981l-0.524,10.016l-0.094,0.15l0.043,0.822l-10.636,203.182l14.21,0l1.705,-104.948l51.583,-79.785l-51.455,71.896Z" style="fill:#3f3d56;fill-rule:nonzero;"/></svg>